//Event file generated from Sappy .s format.
        #include "MPlayDef.event"

        #define    FE4Title_grp  voicegroup000
        #define    FE4Title_pri  0
        #define    FE4Title_rev  0
        #define    FE4Title_key  0

        // .rodata
        // FE4Title
        ALIGN 4

//****************** Track 0 (Midi-Chn.0) ******************//

FE4Title_0:
        BYTE   KEYSH   FE4Title_key+0
// 000   ----------------------------------------
        BYTE   TEMPO   126/2
        BYTE   W02
        BYTE           BENDR   12
        BYTE           VOL     64
        BYTE   W92
        BYTE   W02
// 001   ----------------------------------------
        BYTE   W96
// 002   ----------------------------------------
        BYTE   W48
        BYTE   W03
FE4Title_0_LOOP:
        BYTE           PAN     c_v+11
        BYTE           VOL     112
        BYTE           VOICE   48
        BYTE           N48     Cs4   v127
        BYTE   W44
        BYTE   W01
// 003   ----------------------------------------
        BYTE   W03
        BYTE           N18     Fs4
        BYTE   W24
        BYTE                   As4
        BYTE   W24
        BYTE           N48
        BYTE   W44
        BYTE   W01
// 004   ----------------------------------------
        BYTE   W03
        BYTE                   Ds4
        BYTE   W48
        BYTE                   Ds4
        BYTE   W44
        BYTE   W01
// 005   ----------------------------------------
        BYTE   W03
        BYTE           N16     Fn4
        BYTE   W16
        BYTE                   Fs4
        BYTE   W16
        BYTE                   Gs4
        BYTE   W16
        BYTE           N48     Fs4
        BYTE   W44
        BYTE   W01
// 006   ----------------------------------------
        BYTE   W03
        BYTE                   Fn4
        BYTE   W48
        BYTE                   Cs4
        BYTE   W44
        BYTE   W01
// 007   ----------------------------------------
        BYTE   W03
        BYTE           N18     Fs4
        BYTE   W24
        BYTE                   As4
        BYTE   W24
        BYTE           N48     Cs5
        BYTE   W44
        BYTE   W01
// 008   ----------------------------------------
        BYTE   W03
        BYTE           N18     Bn4
        BYTE   W24
        BYTE                   As4
        BYTE   W24
        BYTE           N60     Ds4
        BYTE   W44
        BYTE   W01
// 009   ----------------------------------------
        BYTE   W15
        BYTE           N07     Fn4
        BYTE   W12
        BYTE                   Fs4
        BYTE   W12
        BYTE                   Gs4
        BYTE   W12
        BYTE           N72     Fs4
        BYTE   W44
        BYTE   W01
// 010   ----------------------------------------
        BYTE   W48
        BYTE   W03
        BYTE           VOL     104
        BYTE           VOICE   57
        BYTE           N42     Cs3
        BYTE   W24
        BYTE           MOD     30
        BYTE   W21
// 011   ----------------------------------------
FE4Title_0_11:
        BYTE   W03
        BYTE           MOD     0
        BYTE           N18     Fs3   v127
        BYTE   W24
        BYTE                   As3
        BYTE   W24
        BYTE           N42
        BYTE   W24
        BYTE           MOD     30
        BYTE   W21
        BYTE   PEND
// 012   ----------------------------------------
FE4Title_0_12:
        BYTE   W03
        BYTE           MOD     0
        BYTE           N42     Ds3   v127
        BYTE   W24
        BYTE           MOD     30
        BYTE   W24
        BYTE                   0
        BYTE           N42
        BYTE   W24
        BYTE           MOD     30
        BYTE   W21
        BYTE   PEND
// 013   ----------------------------------------
FE4Title_0_13:
        BYTE   W15
        BYTE           MOD     0
        BYTE           N05     Fn3   v127
        BYTE   W12
        BYTE                   Fs3
        BYTE   W12
        BYTE                   Gs3
        BYTE   W12
        BYTE           N42     Fs3
        BYTE   W24
        BYTE           MOD     30
        BYTE   W21
        BYTE   PEND
// 014   ----------------------------------------
FE4Title_0_14:
        BYTE   W03
        BYTE           MOD     0
        BYTE           N42     Fn3   v127
        BYTE   W24
        BYTE           MOD     30
        BYTE   W24
        BYTE                   0
        BYTE           N42     Cs3
        BYTE   W24
        BYTE           MOD     30
        BYTE   W21
        BYTE   PEND
// 015   ----------------------------------------
FE4Title_0_15:
        BYTE   W03
        BYTE           MOD     0
        BYTE           N18     Fs3   v127
        BYTE   W24
        BYTE                   As3
        BYTE   W24
        BYTE           N42     Cs4
        BYTE   W24
        BYTE           MOD     30
        BYTE   W21
        BYTE   PEND
// 016   ----------------------------------------
FE4Title_0_16:
        BYTE   W03
        BYTE           MOD     0
        BYTE           N18     Bn3   v127
        BYTE   W24
        BYTE                   As3
        BYTE   W24
        BYTE           N60     Ds3
        BYTE   W24
        BYTE           MOD     30
        BYTE   W21
        BYTE   PEND
// 017   ----------------------------------------
FE4Title_0_17:
        BYTE   W15
        BYTE           MOD     0
        BYTE           N06     Fn3   v127
        BYTE   W12
        BYTE                   Fs3
        BYTE   W12
        BYTE                   Gs3
        BYTE   W12
        BYTE           N72     Fs3
        BYTE   W24
        BYTE           MOD     30
        BYTE   W21
        BYTE   PEND
// 018   ----------------------------------------
FE4Title_0_18:
        BYTE   W03
        BYTE   TEMPO   120/2
        BYTE   W24
        BYTE   TEMPO   116/2
        BYTE           MOD     0
        BYTE           VOICE   72
        BYTE           N12     Fs4   v102
        BYTE   W12
        BYTE                   Fn4
        BYTE   W12
        BYTE           N24     Ds4
        BYTE   W24
        BYTE           N36     Bn4
        BYTE   W21
        BYTE   PEND
// 019   ----------------------------------------
FE4Title_0_19:
        BYTE   W03
        BYTE           MOD     30
        BYTE   W12
        BYTE                   0
        BYTE           N12     Gs4   v102
        BYTE   W12
        BYTE                   Fs4
        BYTE   W12
        BYTE                   Fn4
        BYTE   W12
        BYTE           N36     Cs5
        BYTE   W24
        BYTE           MOD     30
        BYTE   W12
        BYTE                   0
        BYTE           N12     As4
        BYTE   W09
        BYTE   PEND
// 020   ----------------------------------------
FE4Title_0_20:
        BYTE   W03
        BYTE           N15     Fs4   v102
        BYTE   W24
        BYTE           N12
        BYTE   W12
        BYTE                   Fn4
        BYTE   W12
        BYTE           N24     Ds4
        BYTE   W24
        BYTE           N36     Ds5
        BYTE   W21
        BYTE   PEND
// 021   ----------------------------------------
FE4Title_0_21:
        BYTE   W03
        BYTE           MOD     30
        BYTE   W12
        BYTE                   0
        BYTE           N12     Cs5   v102
        BYTE   W12
        BYTE                   Bn4
        BYTE   W12
        BYTE                   Gs4
        BYTE   W12
        BYTE           N84     As4
        BYTE   W24
        BYTE           MOD     30
        BYTE   W21
        BYTE   PEND
// 022   ----------------------------------------
FE4Title_0_22:
        BYTE   W36
        BYTE   W03
        BYTE   TEMPO   120/2
        BYTE   W12
        BYTE           MOD     0
        BYTE           N24     Ds4   v127
        BYTE   W24
        BYTE           N36     Bn4
        BYTE   W21
        BYTE   PEND
// 023   ----------------------------------------
FE4Title_0_23:
        BYTE   W03
        BYTE           MOD     30
        BYTE   W12
        BYTE                   0
        BYTE           N12     Gs4   v127
        BYTE   W12
        BYTE                   Fs4
        BYTE   W12
        BYTE                   Fn4
        BYTE   W12
        BYTE           N36     Cs5
        BYTE   W24
        BYTE           MOD     30
        BYTE   W12
        BYTE                   0
        BYTE           N12     As4
        BYTE   W09
        BYTE   PEND
// 024   ----------------------------------------
FE4Title_0_24:
        BYTE   W03
        BYTE           N21     Fs5   v127
        BYTE   W24
        BYTE           N12
        BYTE   W12
        BYTE                   Fn5
        BYTE   W12
        BYTE           N24     Ds5   v112
        BYTE   W24
        BYTE           N36
        BYTE   W21
        BYTE   PEND
// 025   ----------------------------------------
FE4Title_0_25:
        BYTE   W03
        BYTE           MOD     30
        BYTE   W12
        BYTE                   0
        BYTE           N12     Fn5   v112
        BYTE   W12
        BYTE                   Fs5
        BYTE   W12
        BYTE                   Gs5
        BYTE   W12
        BYTE   TEMPO   122/2
        BYTE           N48     Fs5
        BYTE   W24
        BYTE           MOD     30
        BYTE   W21
        BYTE   PEND
// 026   ----------------------------------------
        BYTE   W03
        BYTE   TEMPO   126/2
        BYTE                   0
        BYTE           N48     Fn5   v107
        BYTE   W24
        BYTE           MOD     30
        BYTE   W24
        BYTE           VOICE   48
        BYTE           N48     Cs4   v127
        BYTE           VOL     112
        BYTE           MOD     0
        BYTE   GoTo
         POIN2  FE4Title_0_LOOP
        BYTE   W24
        BYTE                   30
        BYTE   W21
// 027   ----------------------------------------
FE4Title_0_27:
        BYTE   W03
        BYTE           MOD     0
        BYTE           N18     Fs4   v127
        BYTE   W24
        BYTE                   As4
        BYTE   W24
        BYTE           N48
        BYTE   W24
        BYTE           MOD     30
        BYTE   W21
        BYTE   PEND
// 028   ----------------------------------------
FE4Title_0_28:
        BYTE   W03
        BYTE           MOD     0
        BYTE           N48     Ds4   v127
        BYTE   W24
        BYTE           MOD     30
        BYTE   W24
        BYTE                   0
        BYTE           N48
        BYTE   W24
        BYTE           MOD     30
        BYTE   W21
        BYTE   PEND
// 029   ----------------------------------------
FE4Title_0_29:
        BYTE   W03
        BYTE           MOD     0
        BYTE           N16     Fn4   v127
        BYTE   W16
        BYTE                   Fs4
        BYTE   W16
        BYTE                   Gs4
        BYTE   W16
        BYTE           N48     Fs4
        BYTE   W24
        BYTE           MOD     30
        BYTE   W21
        BYTE   PEND
// 030   ----------------------------------------
FE4Title_0_30:
        BYTE   W03
        BYTE           MOD     0
        BYTE           N48     Fn4   v127
        BYTE   W24
        BYTE           MOD     30
        BYTE   W24
        BYTE                   0
        BYTE           N48     Cs4
        BYTE   W24
        BYTE           MOD     30
        BYTE   W21
        BYTE   PEND
// 031   ----------------------------------------
FE4Title_0_31:
        BYTE   W03
        BYTE           MOD     0
        BYTE           N18     Fs4   v127
        BYTE   W24
        BYTE                   As4
        BYTE   W24
        BYTE           N48     Cs5
        BYTE   W24
        BYTE           MOD     30
        BYTE   W21
        BYTE   PEND
// 032   ----------------------------------------
FE4Title_0_32:
        BYTE   W03
        BYTE           MOD     0
        BYTE           N18     Bn4   v127
        BYTE   W24
        BYTE                   As4
        BYTE   W24
        BYTE           N60     Ds4
        BYTE   W24
        BYTE           MOD     30
        BYTE   W21
        BYTE   PEND
// 033   ----------------------------------------
FE4Title_0_33:
        BYTE   W15
        BYTE           MOD     0
        BYTE           N07     Fn4   v127
        BYTE   W12
        BYTE                   Fs4
        BYTE   W12
        BYTE                   Gs4
        BYTE   W12
        BYTE           N72     Fs4
        BYTE   W24
        BYTE           MOD     30
        BYTE   W21
        BYTE   PEND
// 034   ----------------------------------------
FE4Title_0_34:
        BYTE   W48
        BYTE   W03
        BYTE           VOL     104
        BYTE           MOD     0
        BYTE           VOICE   57
        BYTE           N42     Cs3   v127
        BYTE   W24
        BYTE           MOD     30
        BYTE   W21
        BYTE   PEND
// 035   ----------------------------------------
        BYTE   PATT
         POIN2  FE4Title_0_11
// 036   ----------------------------------------
        BYTE   PATT
         POIN2  FE4Title_0_12
// 037   ----------------------------------------
        BYTE   PATT
         POIN2  FE4Title_0_13
// 038   ----------------------------------------
        BYTE   PATT
         POIN2  FE4Title_0_14
// 039   ----------------------------------------
        BYTE   PATT
         POIN2  FE4Title_0_15
// 040   ----------------------------------------
        BYTE   PATT
         POIN2  FE4Title_0_16
// 041   ----------------------------------------
        BYTE   PATT
         POIN2  FE4Title_0_17
// 042   ----------------------------------------
        BYTE   PATT
         POIN2  FE4Title_0_18
// 043   ----------------------------------------
        BYTE   PATT
         POIN2  FE4Title_0_19
// 044   ----------------------------------------
        BYTE   PATT
         POIN2  FE4Title_0_20
// 045   ----------------------------------------
        BYTE   PATT
         POIN2  FE4Title_0_21
// 046   ----------------------------------------
        BYTE   PATT
         POIN2  FE4Title_0_22
// 047   ----------------------------------------
        BYTE   PATT
         POIN2  FE4Title_0_23
// 048   ----------------------------------------
        BYTE   PATT
         POIN2  FE4Title_0_24
// 049   ----------------------------------------
        BYTE   PATT
         POIN2  FE4Title_0_25
// 050   ----------------------------------------
        BYTE   W03
        BYTE   TEMPO   126/2
        BYTE           MOD     0
        BYTE           N48     Fn5   v107
        BYTE   W24
        BYTE           MOD     30
        BYTE   W24
        BYTE           VOL     112
        BYTE           MOD     0
        BYTE           VOICE   48
        BYTE           N48     Cs4   v127
        BYTE   W24
        BYTE           MOD     30
        BYTE   W21
// 051   ----------------------------------------
        BYTE   PATT
         POIN2  FE4Title_0_27
// 052   ----------------------------------------
        BYTE   PATT
         POIN2  FE4Title_0_28
// 053   ----------------------------------------
        BYTE   PATT
         POIN2  FE4Title_0_29
// 054   ----------------------------------------
        BYTE   PATT
         POIN2  FE4Title_0_30
// 055   ----------------------------------------
        BYTE   PATT
         POIN2  FE4Title_0_31
// 056   ----------------------------------------
        BYTE   PATT
         POIN2  FE4Title_0_32
// 057   ----------------------------------------
        BYTE   PATT
         POIN2  FE4Title_0_33
// 058   ----------------------------------------
        BYTE   PATT
         POIN2  FE4Title_0_34
// 059   ----------------------------------------
        BYTE   PATT
         POIN2  FE4Title_0_11
// 060   ----------------------------------------
        BYTE   PATT
         POIN2  FE4Title_0_12
// 061   ----------------------------------------
        BYTE   PATT
         POIN2  FE4Title_0_13
// 062   ----------------------------------------
        BYTE   PATT
         POIN2  FE4Title_0_14
// 063   ----------------------------------------
        BYTE   PATT
         POIN2  FE4Title_0_15
// 064   ----------------------------------------
        BYTE   PATT
         POIN2  FE4Title_0_16
// 065   ----------------------------------------
        BYTE   PATT
         POIN2  FE4Title_0_17
// 066   ----------------------------------------
        BYTE   W03
        BYTE   TEMPO   120/2
        BYTE   W24
        BYTE   TEMPO   116/2
        BYTE   W24
        BYTE   TEMPO   128/2
        BYTE           VOL     112
        BYTE           MOD     0
        BYTE           VOICE   48
        BYTE           N60     Ds4   v127   gtp3
        BYTE   W24
        BYTE           MOD     30
        BYTE   W21
// 067   ----------------------------------------
        BYTE   W24
        BYTE   W03
        BYTE                   0
        BYTE           N07
        BYTE   W08
        BYTE                   Ds4
        BYTE   W08
        BYTE                   Fs4
        BYTE   W08
        BYTE           N84     Fn4
        BYTE   W24
        BYTE           MOD     30
        BYTE   W21
// 068   ----------------------------------------
        BYTE   W48
        BYTE   W03
        BYTE                   0
        BYTE           N60     Fn4   v127   gtp3
        BYTE   W24
        BYTE           MOD     30
        BYTE   W21
// 069   ----------------------------------------
        BYTE   W24
        BYTE   W03
        BYTE                   0
        BYTE           N07
        BYTE   W08
        BYTE                   Fs4
        BYTE   W08
        BYTE                   Gs4
        BYTE   W08
        BYTE           N84     Fs4
        BYTE   W24
        BYTE           MOD     30
        BYTE   W21
// 070   ----------------------------------------
        BYTE   W48
        BYTE   W03
        BYTE           VOL     96
        BYTE           MOD     0
        BYTE           N60     Fs4   v127   gtp3
        BYTE   W24
        BYTE           MOD     30
        BYTE   W21
// 071   ----------------------------------------
        BYTE   W24
        BYTE   W03
        BYTE                   0
        BYTE           N07
        BYTE   W08
        BYTE                   Fs4
        BYTE   W08
        BYTE                   Fs4
        BYTE   W08
        BYTE           N42     Fn4
        BYTE   W24
        BYTE           MOD     30
        BYTE   W21
// 072   ----------------------------------------
        BYTE   W03
        BYTE                   0
        BYTE           N42     Cs4
        BYTE   W24
        BYTE           MOD     30
        BYTE   W24
        BYTE           VOL     112
        BYTE           MOD     0
        BYTE           N10     As3
        BYTE   W24
        BYTE           N07
        BYTE   W08
        BYTE                   As3
        BYTE   W08
        BYTE                   As3
        BYTE   W05
// 073   ----------------------------------------
FE4Title_0_73:
        BYTE   W03
        BYTE           N10     Cn4   v127
        BYTE   W24
        BYTE           N07
        BYTE   W08
        BYTE                   Cn4
        BYTE   W08
        BYTE                   Cn4
        BYTE   W08
        BYTE           N10     Cs4
        BYTE   W24
        BYTE           N07
        BYTE   W08
        BYTE                   Cs4
        BYTE   W08
        BYTE                   Cs4
        BYTE   W05
        BYTE   PEND
// 074   ----------------------------------------
        BYTE   W03
        BYTE           N10     Ds4
        BYTE   W24
        BYTE           N21
        BYTE   W24
        BYTE           N10     As3
        BYTE   W24
        BYTE           N07
        BYTE   W08
        BYTE                   As3
        BYTE   W08
        BYTE                   As3
        BYTE   W05
// 075   ----------------------------------------
        BYTE   PATT
         POIN2  FE4Title_0_73
// 076   ----------------------------------------
        BYTE   W03
        BYTE   TEMPO   110/2
        BYTE           N21     Fs4   v127
        BYTE   W24
        BYTE   TEMPO   86/2
        BYTE                   Cn4
        BYTE   W24
        BYTE   TEMPO   126/2
        BYTE           VOL     104
        BYTE           N84     Gs3
        BYTE   W24
        BYTE           MOD     30
        BYTE   W21
// 077   ----------------------------------------
FE4Title_0_77:
        BYTE   W60
        BYTE   W03
        BYTE           MOD     0
        BYTE           N52     Fs3   v127
        BYTE   W24
        BYTE           MOD     30
        BYTE   W09
        BYTE   PEND
// 078   ----------------------------------------
FE4Title_0_78:
        BYTE   W24
        BYTE   W03
        BYTE           MOD     0
        BYTE           N10     As3   v127
        BYTE   W24
        BYTE           N84     Gs3
        BYTE   W24
        BYTE           MOD     30
        BYTE   W21
        BYTE   PEND
// 079   ----------------------------------------
        BYTE   PATT
         POIN2  FE4Title_0_77
// 080   ----------------------------------------
        BYTE   PATT
         POIN2  FE4Title_0_78
// 081   ----------------------------------------
        BYTE   W96
// 082   ----------------------------------------
        BYTE   W48
        BYTE   W03
        BYTE   FINE

//****************** Track 1 (Midi-Chn.1) ******************//

FE4Title_1:
        BYTE   KEYSH   FE4Title_key+0
// 000   ----------------------------------------
FE4Title_1_0:
        BYTE   W02
        BYTE           BENDR   12
        BYTE           VOL     64
        BYTE   W92
        BYTE   W02
        BYTE   PEND
// 001   ----------------------------------------
        BYTE   W96
// 002   ----------------------------------------
        BYTE   W48
        BYTE   W03
FE4Title_1_LOOP:
        BYTE           PAN     c_v+6
        BYTE           VOL     112
        BYTE           VOICE   48
        BYTE           N48     Cs3   v127
        BYTE   W44
        BYTE   W01
// 003   ----------------------------------------
        BYTE   W03
        BYTE           N18     Fs3
        BYTE   W24
        BYTE                   As3
        BYTE   W24
        BYTE           N48
        BYTE   W44
        BYTE   W01
// 004   ----------------------------------------
        BYTE   W03
        BYTE                   Ds3
        BYTE   W48
        BYTE                   Ds3
        BYTE   W44
        BYTE   W01
// 005   ----------------------------------------
        BYTE   W03
        BYTE           N16     Fn3
        BYTE   W16
        BYTE                   Fs3
        BYTE   W16
        BYTE                   Gs3
        BYTE   W16
        BYTE           N48     Fs3
        BYTE   W44
        BYTE   W01
// 006   ----------------------------------------
        BYTE   W03
        BYTE                   Fn3
        BYTE   W48
        BYTE                   Cs3
        BYTE   W44
        BYTE   W01
// 007   ----------------------------------------
        BYTE   W03
        BYTE           N18     Fs3
        BYTE   W24
        BYTE                   As3
        BYTE   W24
        BYTE           N48     Cs4
        BYTE   W44
        BYTE   W01
// 008   ----------------------------------------
        BYTE   W03
        BYTE           N18     Bn3
        BYTE   W24
        BYTE                   As3
        BYTE   W24
        BYTE           N60     Ds3
        BYTE   W44
        BYTE   W01
// 009   ----------------------------------------
        BYTE   W15
        BYTE           N07     Fn3
        BYTE   W12
        BYTE                   Fs3
        BYTE   W12
        BYTE                   Gs3
        BYTE   W12
        BYTE           N72     Fs3
        BYTE   W44
        BYTE   W01
// 010   ----------------------------------------
        BYTE   W48
        BYTE   W03
        BYTE           VOICE   57
        BYTE           PAN     c_v+11
        BYTE           VOL     104
        BYTE           MOD     30
        BYTE   W12
        BYTE                   0
        BYTE           N42     Cs3   v097
        BYTE   W24
        BYTE           MOD     30
        BYTE   W09
// 011   ----------------------------------------
FE4Title_1_11:
        BYTE   W15
        BYTE           MOD     0
        BYTE           N18     Fs3   v097
        BYTE   W24
        BYTE                   As3
        BYTE   W24
        BYTE           N42
        BYTE   W24
        BYTE           MOD     30
        BYTE   W09
        BYTE   PEND
// 012   ----------------------------------------
FE4Title_1_12:
        BYTE   W15
        BYTE           MOD     0
        BYTE           N42     Ds3   v097
        BYTE   W24
        BYTE           MOD     30
        BYTE   W24
        BYTE                   0
        BYTE           N42
        BYTE   W24
        BYTE           MOD     30
        BYTE   W09
        BYTE   PEND
// 013   ----------------------------------------
FE4Title_1_13:
        BYTE   W24
        BYTE   W03
        BYTE           MOD     0
        BYTE           N05     Fn3   v097
        BYTE   W12
        BYTE                   Fs3
        BYTE   W12
        BYTE                   Gs3
        BYTE   W12
        BYTE           N42     Fs3
        BYTE   W24
        BYTE           MOD     30
        BYTE   W09
        BYTE   PEND
// 014   ----------------------------------------
FE4Title_1_14:
        BYTE   W15
        BYTE           MOD     0
        BYTE           N42     Fn3   v097
        BYTE   W24
        BYTE           MOD     30
        BYTE   W24
        BYTE                   0
        BYTE           N42     Cs3
        BYTE   W24
        BYTE           MOD     30
        BYTE   W09
        BYTE   PEND
// 015   ----------------------------------------
FE4Title_1_15:
        BYTE   W15
        BYTE           MOD     0
        BYTE           N18     Fs3   v097
        BYTE   W24
        BYTE                   As3
        BYTE   W24
        BYTE           N42     Cs4
        BYTE   W24
        BYTE           MOD     30
        BYTE   W09
        BYTE   PEND
// 016   ----------------------------------------
FE4Title_1_16:
        BYTE   W15
        BYTE           MOD     0
        BYTE           N18     Bn3   v097
        BYTE   W24
        BYTE                   As3
        BYTE   W24
        BYTE           N60     Ds3
        BYTE   W24
        BYTE           MOD     30
        BYTE   W09
        BYTE   PEND
// 017   ----------------------------------------
FE4Title_1_17:
        BYTE   W24
        BYTE   W03
        BYTE           MOD     0
        BYTE           N06     Fn3   v097
        BYTE   W12
        BYTE                   Fs3
        BYTE   W12
        BYTE                   Gs3
        BYTE   W12
        BYTE           N72     Fs3
        BYTE   W24
        BYTE           MOD     30
        BYTE   W09
        BYTE   PEND
// 018   ----------------------------------------
FE4Title_1_18:
        BYTE   W36
        BYTE   W03
        BYTE           MOD     0
        BYTE           VOICE   72
        BYTE           N12     Fs4   v072
        BYTE   W12
        BYTE                   Fn4
        BYTE   W12
        BYTE           N24     Ds4
        BYTE   W24
        BYTE           N36     Bn4
        BYTE   W09
        BYTE   PEND
// 019   ----------------------------------------
FE4Title_1_19:
        BYTE   W15
        BYTE           MOD     30
        BYTE   W12
        BYTE                   0
        BYTE           N12     Gs4   v072
        BYTE   W12
        BYTE                   Fs4
        BYTE   W12
        BYTE                   Fn4
        BYTE   W12
        BYTE           N36     Cs5
        BYTE   W24
        BYTE           MOD     30
        BYTE   W09
        BYTE   PEND
// 020   ----------------------------------------
FE4Title_1_20:
        BYTE   W03
        BYTE           MOD     0
        BYTE           N12     As4   v072
        BYTE   W12
        BYTE           N15     Fs4
        BYTE   W24
        BYTE           N12
        BYTE   W12
        BYTE                   Fn4
        BYTE   W12
        BYTE           N24     Ds4
        BYTE   W24
        BYTE           N36     Ds5
        BYTE   W09
        BYTE   PEND
// 021   ----------------------------------------
FE4Title_1_21:
        BYTE   W15
        BYTE           MOD     30
        BYTE   W12
        BYTE                   0
        BYTE           N12     Cs5   v072
        BYTE   W12
        BYTE                   Bn4
        BYTE   W12
        BYTE                   Gs4
        BYTE   W12
        BYTE           N84     As4
        BYTE   W24
        BYTE           MOD     30
        BYTE   W09
        BYTE   PEND
// 022   ----------------------------------------
FE4Title_1_22:
        BYTE   W60
        BYTE   W03
        BYTE           MOD     0
        BYTE           N24     Ds4   v097
        BYTE   W24
        BYTE           N36     Bn4
        BYTE   W09
        BYTE   PEND
// 023   ----------------------------------------
FE4Title_1_23:
        BYTE   W15
        BYTE           MOD     30
        BYTE   W12
        BYTE                   0
        BYTE           N12     Gs4   v097
        BYTE   W12
        BYTE                   Fs4
        BYTE   W12
        BYTE                   Fn4
        BYTE   W12
        BYTE           N36     Cs5
        BYTE   W24
        BYTE           MOD     30
        BYTE   W09
        BYTE   PEND
// 024   ----------------------------------------
FE4Title_1_24:
        BYTE   W03
        BYTE           MOD     0
        BYTE           N12     As4   v097
        BYTE   W12
        BYTE           N21     Fs5
        BYTE   W24
        BYTE           N12
        BYTE   W12
        BYTE                   Fn5
        BYTE   W12
        BYTE           N24     Ds5   v082
        BYTE   W24
        BYTE           N36
        BYTE   W09
        BYTE   PEND
// 025   ----------------------------------------
FE4Title_1_25:
        BYTE   W15
        BYTE           MOD     30
        BYTE   W12
        BYTE                   0
        BYTE           N12     Fn5   v082
        BYTE   W12
        BYTE                   Fs5
        BYTE   W12
        BYTE                   Gs5
        BYTE   W12
        BYTE           N48     Fs5
        BYTE   W24
        BYTE           MOD     30
        BYTE   W09
        BYTE   PEND
// 026   ----------------------------------------
        BYTE   W15
        BYTE                   0
        BYTE           N36     Fn5   v077
        BYTE   W24
        BYTE           MOD     30
        BYTE   W12
        BYTE           VOICE   48
        BYTE           N48     Cs3   v097
        BYTE           VOL     112
        BYTE           PAN     c_v+6
        BYTE           MOD     0
        BYTE   GoTo
         POIN2  FE4Title_1_LOOP
        BYTE   W24
        BYTE                   30
        BYTE   W21
// 027   ----------------------------------------
FE4Title_1_27:
        BYTE   W03
        BYTE           MOD     0
        BYTE           N18     Fs3   v097
        BYTE   W24
        BYTE                   As3
        BYTE   W24
        BYTE           N48
        BYTE   W24
        BYTE           MOD     30
        BYTE   W21
        BYTE   PEND
// 028   ----------------------------------------
FE4Title_1_28:
        BYTE   W03
        BYTE           MOD     0
        BYTE           N48     Ds3   v097
        BYTE   W24
        BYTE           MOD     30
        BYTE   W24
        BYTE                   0
        BYTE           N48
        BYTE   W24
        BYTE           MOD     30
        BYTE   W21
        BYTE   PEND
// 029   ----------------------------------------
FE4Title_1_29:
        BYTE   W03
        BYTE           MOD     0
        BYTE           N16     Fn3   v097
        BYTE   W16
        BYTE                   Fs3
        BYTE   W16
        BYTE                   Gs3
        BYTE   W16
        BYTE           N48     Fs3
        BYTE   W24
        BYTE           MOD     30
        BYTE   W21
        BYTE   PEND
// 030   ----------------------------------------
FE4Title_1_30:
        BYTE   W03
        BYTE           MOD     0
        BYTE           N48     Fn3   v097
        BYTE   W24
        BYTE           MOD     30
        BYTE   W24
        BYTE                   0
        BYTE           N48     Cs3
        BYTE   W24
        BYTE           MOD     30
        BYTE   W21
        BYTE   PEND
// 031   ----------------------------------------
FE4Title_1_31:
        BYTE   W03
        BYTE           MOD     0
        BYTE           N18     Fs3   v097
        BYTE   W24
        BYTE                   As3
        BYTE   W24
        BYTE           N48     Cs4
        BYTE   W24
        BYTE           MOD     30
        BYTE   W21
        BYTE   PEND
// 032   ----------------------------------------
FE4Title_1_32:
        BYTE   W03
        BYTE           MOD     0
        BYTE           N18     Bn3   v097
        BYTE   W24
        BYTE                   As3
        BYTE   W24
        BYTE           N60     Ds3
        BYTE   W24
        BYTE           MOD     30
        BYTE   W21
        BYTE   PEND
// 033   ----------------------------------------
FE4Title_1_33:
        BYTE   W15
        BYTE           MOD     0
        BYTE           N07     Fn3   v097
        BYTE   W12
        BYTE                   Fs3
        BYTE   W12
        BYTE                   Gs3
        BYTE   W12
        BYTE           N72     Fs3
        BYTE   W24
        BYTE           MOD     30
        BYTE   W21
        BYTE   PEND
// 034   ----------------------------------------
FE4Title_1_34:
        BYTE   W48
        BYTE   W03
        BYTE           VOICE   57
        BYTE           PAN     c_v+11
        BYTE           VOL     104
        BYTE   W12
        BYTE           MOD     0
        BYTE           N42     Cs3   v097
        BYTE   W24
        BYTE           MOD     30
        BYTE   W09
        BYTE   PEND
// 035   ----------------------------------------
        BYTE   PATT
         POIN2  FE4Title_1_11
// 036   ----------------------------------------
        BYTE   PATT
         POIN2  FE4Title_1_12
// 037   ----------------------------------------
        BYTE   PATT
         POIN2  FE4Title_1_13
// 038   ----------------------------------------
        BYTE   PATT
         POIN2  FE4Title_1_14
// 039   ----------------------------------------
        BYTE   PATT
         POIN2  FE4Title_1_15
// 040   ----------------------------------------
        BYTE   PATT
         POIN2  FE4Title_1_16
// 041   ----------------------------------------
        BYTE   PATT
         POIN2  FE4Title_1_17
// 042   ----------------------------------------
        BYTE   PATT
         POIN2  FE4Title_1_18
// 043   ----------------------------------------
        BYTE   PATT
         POIN2  FE4Title_1_19
// 044   ----------------------------------------
        BYTE   PATT
         POIN2  FE4Title_1_20
// 045   ----------------------------------------
        BYTE   PATT
         POIN2  FE4Title_1_21
// 046   ----------------------------------------
        BYTE   PATT
         POIN2  FE4Title_1_22
// 047   ----------------------------------------
        BYTE   PATT
         POIN2  FE4Title_1_23
// 048   ----------------------------------------
        BYTE   PATT
         POIN2  FE4Title_1_24
// 049   ----------------------------------------
        BYTE   PATT
         POIN2  FE4Title_1_25
// 050   ----------------------------------------
        BYTE   W15
        BYTE           MOD     0
        BYTE           N36     Fn5   v077
        BYTE   W24
        BYTE           MOD     30
        BYTE   W12
        BYTE           PAN     c_v+6
        BYTE           VOL     112
        BYTE           MOD     0
        BYTE           VOICE   48
        BYTE           N48     Cs3   v097
        BYTE   W24
        BYTE           MOD     30
        BYTE   W21
// 051   ----------------------------------------
        BYTE   PATT
         POIN2  FE4Title_1_27
// 052   ----------------------------------------
        BYTE   PATT
         POIN2  FE4Title_1_28
// 053   ----------------------------------------
        BYTE   PATT
         POIN2  FE4Title_1_29
// 054   ----------------------------------------
        BYTE   PATT
         POIN2  FE4Title_1_30
// 055   ----------------------------------------
        BYTE   PATT
         POIN2  FE4Title_1_31
// 056   ----------------------------------------
        BYTE   PATT
         POIN2  FE4Title_1_32
// 057   ----------------------------------------
        BYTE   PATT
         POIN2  FE4Title_1_33
// 058   ----------------------------------------
        BYTE   PATT
         POIN2  FE4Title_1_34
// 059   ----------------------------------------
        BYTE   PATT
         POIN2  FE4Title_1_11
// 060   ----------------------------------------
        BYTE   PATT
         POIN2  FE4Title_1_12
// 061   ----------------------------------------
        BYTE   PATT
         POIN2  FE4Title_1_13
// 062   ----------------------------------------
        BYTE   PATT
         POIN2  FE4Title_1_14
// 063   ----------------------------------------
        BYTE   PATT
         POIN2  FE4Title_1_15
// 064   ----------------------------------------
        BYTE   PATT
         POIN2  FE4Title_1_16
// 065   ----------------------------------------
        BYTE   PATT
         POIN2  FE4Title_1_17
// 066   ----------------------------------------
        BYTE   W48
        BYTE   W03
        BYTE           PAN     c_v+26
        BYTE           VOL     112
        BYTE           MOD     0
        BYTE           VOICE   48
        BYTE           N60     Ds3   v097   gtp3
        BYTE   W24
        BYTE           MOD     30
        BYTE   W21
// 067   ----------------------------------------
        BYTE   W24
        BYTE   W03
        BYTE                   0
        BYTE           N07
        BYTE   W08
        BYTE                   Ds3
        BYTE   W08
        BYTE                   Fs3
        BYTE   W08
        BYTE           N84     Fn3
        BYTE   W24
        BYTE           MOD     30
        BYTE   W21
// 068   ----------------------------------------
        BYTE   W48
        BYTE   W03
        BYTE                   0
        BYTE           N60     Fn3   v097   gtp3
        BYTE   W24
        BYTE           MOD     30
        BYTE   W21
// 069   ----------------------------------------
        BYTE   W24
        BYTE   W03
        BYTE                   0
        BYTE           N07
        BYTE   W08
        BYTE                   Fs3
        BYTE   W08
        BYTE                   Gs3
        BYTE   W08
        BYTE           N84     Fs3
        BYTE   W24
        BYTE           MOD     30
        BYTE   W21
// 070   ----------------------------------------
        BYTE   W48
        BYTE   W03
        BYTE           VOL     96
        BYTE           MOD     0
        BYTE           N60     Fs3   v097   gtp3
        BYTE   W24
        BYTE           MOD     30
        BYTE   W21
// 071   ----------------------------------------
        BYTE   W24
        BYTE   W03
        BYTE                   0
        BYTE           N07
        BYTE   W08
        BYTE                   Fs3
        BYTE   W08
        BYTE                   Fs3
        BYTE   W08
        BYTE           N42     Fn3
        BYTE   W24
        BYTE           MOD     30
        BYTE   W21
// 072   ----------------------------------------
        BYTE   W03
        BYTE                   0
        BYTE           N42     Cs3
        BYTE   W24
        BYTE           MOD     30
        BYTE   W24
        BYTE           VOL     112
        BYTE           MOD     0
        BYTE           N10     As2
        BYTE   W24
        BYTE           N07
        BYTE   W08
        BYTE                   As2
        BYTE   W08
        BYTE                   As2
        BYTE   W05
// 073   ----------------------------------------
FE4Title_1_73:
        BYTE   W03
        BYTE           N10     Cn3   v097
        BYTE   W24
        BYTE           N07
        BYTE   W08
        BYTE                   Cn3
        BYTE   W08
        BYTE                   Cn3
        BYTE   W08
        BYTE           N10     Cs3
        BYTE   W24
        BYTE           N07
        BYTE   W08
        BYTE                   Cs3
        BYTE   W08
        BYTE                   Cs3
        BYTE   W05
        BYTE   PEND
// 074   ----------------------------------------
        BYTE   W03
        BYTE           N10     Ds3
        BYTE   W24
        BYTE           N21
        BYTE   W24
        BYTE           N10     As2
        BYTE   W24
        BYTE           N07
        BYTE   W08
        BYTE                   As2
        BYTE   W08
        BYTE                   As2
        BYTE   W05
// 075   ----------------------------------------
        BYTE   PATT
         POIN2  FE4Title_1_73
// 076   ----------------------------------------
        BYTE   W03
        BYTE           N21     Fs3   v097
        BYTE   W24
        BYTE                   Cn3
        BYTE   W24
        BYTE           VOL     104
        BYTE           N84     Fn3
        BYTE   W24
        BYTE           MOD     30
        BYTE   W21
// 077   ----------------------------------------
FE4Title_1_77:
        BYTE   W60
        BYTE   W03
        BYTE           MOD     0
        BYTE           N52     Ds3   v097
        BYTE   W24
        BYTE           MOD     30
        BYTE   W09
        BYTE   PEND
// 078   ----------------------------------------
FE4Title_1_78:
        BYTE   W24
        BYTE   W03
        BYTE           MOD     0
        BYTE           N10     Fs3   v097
        BYTE   W24
        BYTE           N84     Fn3
        BYTE   W24
        BYTE           MOD     30
        BYTE   W21
        BYTE   PEND
// 079   ----------------------------------------
        BYTE   PATT
         POIN2  FE4Title_1_77
// 080   ----------------------------------------
        BYTE   PATT
         POIN2  FE4Title_1_78
// 081   ----------------------------------------
        BYTE   W96
// 082   ----------------------------------------
        BYTE   W48
        BYTE   W03
        BYTE   FINE

//****************** Track 2 (Midi-Chn.2) ******************//

FE4Title_2:
        BYTE   KEYSH   FE4Title_key+0
// 000   ----------------------------------------
        BYTE   W02
        BYTE           BENDR   12
        BYTE           VOL     64
        BYTE   W48
        BYTE   W01
        BYTE           PAN     c_v-20
        BYTE           VOL     0
        BYTE           VOICE   60
        BYTE           TIE     Fs2   v127
        BYTE   W06
        BYTE           VOL     6
        BYTE   W06
        BYTE                   12
        BYTE   W06
        BYTE                   18
        BYTE   W06
        BYTE                   24
        BYTE   W06
        BYTE                   30
        BYTE   W06
        BYTE                   36
        BYTE   W06
        BYTE                   42
        BYTE   W03
// 001   ----------------------------------------
FE4Title_2_1:
        BYTE   W03
        BYTE           VOL     48
        BYTE   W06
        BYTE                   54
        BYTE   W06
        BYTE                   60
        BYTE   W06
        BYTE                   66
        BYTE   W06
        BYTE                   72
        BYTE   W06
        BYTE                   78
        BYTE   W06
        BYTE                   84
        BYTE   W06
        BYTE                   90
        BYTE   W06
        BYTE                   96
        BYTE   W44
        BYTE   W01
        BYTE   PEND
// 002   ----------------------------------------
        BYTE   W48
        BYTE   W03
        BYTE           EOT     Fs2
FE4Title_2_LOOP:
        BYTE           PAN     c_v-14
        BYTE           VOL     104
        BYTE           VOICE   48
        BYTE           N48     As2   v127
        BYTE   W44
        BYTE   W01
// 003   ----------------------------------------
FE4Title_2_3:
        BYTE   W03
        BYTE           N18     Cs3   v127
        BYTE   W24
        BYTE                   Fs3
        BYTE   W24
        BYTE           N48
        BYTE   W44
        BYTE   W01
        BYTE   PEND
// 004   ----------------------------------------
FE4Title_2_4:
        BYTE   W03
        BYTE           N24     Bn2   v127
        BYTE   W24
        BYTE                   As2
        BYTE   W24
        BYTE           N48     Bn2
        BYTE   W44
        BYTE   W01
        BYTE   PEND
// 005   ----------------------------------------
FE4Title_2_5:
        BYTE   W03
        BYTE           N16     Cs3   v127
        BYTE   W16
        BYTE                   Cs3
        BYTE   W16
        BYTE                   Ds3
        BYTE   W16
        BYTE           N48     Cs3
        BYTE   W44
        BYTE   W01
        BYTE   PEND
// 006   ----------------------------------------
FE4Title_2_6:
        BYTE   W03
        BYTE           N48     Cs3   v127
        BYTE   W48
        BYTE                   As2
        BYTE   W44
        BYTE   W01
        BYTE   PEND
// 007   ----------------------------------------
        BYTE   PATT
         POIN2  FE4Title_2_3
// 008   ----------------------------------------
FE4Title_2_8:
        BYTE   W03
        BYTE           N18     Ds3   v127
        BYTE   W24
        BYTE                   Fs3
        BYTE   W24
        BYTE           N60     Bn2
        BYTE   W44
        BYTE   W01
        BYTE   PEND
// 009   ----------------------------------------
FE4Title_2_9:
        BYTE   W15
        BYTE           N12     Cs3   v127
        BYTE   W12
        BYTE                   Cs3
        BYTE   W12
        BYTE                   Ds3
        BYTE   W12
        BYTE           N72     Cs3
        BYTE   W44
        BYTE   W01
        BYTE   PEND
// 010   ----------------------------------------
FE4Title_2_10:
        BYTE   W48
        BYTE   W03
        BYTE           PAN     c_v-4
        BYTE           VOL     96
        BYTE           VOICE   60
        BYTE           N42     As2   v127
        BYTE   W24
        BYTE   W03
        BYTE           MOD     35
        BYTE   W18
        BYTE   PEND
// 011   ----------------------------------------
FE4Title_2_11:
        BYTE   W03
        BYTE           MOD     0
        BYTE           N18     As2   v127
        BYTE   W24
        BYTE                   Cs3
        BYTE   W24
        BYTE           N30     Bn2   v127   gtp1
        BYTE   W24
        BYTE   W03
        BYTE           MOD     35
        BYTE   W09
        BYTE                   0
        BYTE           N05
        BYTE   W06
        BYTE                   Bn2
        BYTE   W03
        BYTE   PEND
// 012   ----------------------------------------
FE4Title_2_12:
        BYTE   W03
        BYTE           N21     Bn2   v127
        BYTE   W24
        BYTE           N10
        BYTE   W12
        BYTE                   As2
        BYTE   W12
        BYTE           N30     Gs2   v127   gtp1
        BYTE   W24
        BYTE   W03
        BYTE           MOD     35
        BYTE   W09
        BYTE                   0
        BYTE           N05
        BYTE   W06
        BYTE                   Gs2
        BYTE   W03
        BYTE   PEND
// 013   ----------------------------------------
FE4Title_2_13:
        BYTE   W15
        BYTE           N05     Gs2   v127
        BYTE   W12
        BYTE                   As2
        BYTE   W12
        BYTE                   Bn2
        BYTE   W12
        BYTE           N42     As2
        BYTE   W24
        BYTE   W03
        BYTE           MOD     35
        BYTE   W18
        BYTE   PEND
// 014   ----------------------------------------
FE4Title_2_14:
        BYTE   W03
        BYTE           MOD     0
        BYTE           N42     Gs2   v127
        BYTE   W24
        BYTE   W03
        BYTE           MOD     35
        BYTE   W21
        BYTE                   0
        BYTE           N42     As2
        BYTE   W24
        BYTE   W03
        BYTE           MOD     35
        BYTE   W18
        BYTE   PEND
// 015   ----------------------------------------
FE4Title_2_15:
        BYTE   W03
        BYTE           MOD     0
        BYTE           N18     As2   v127
        BYTE   W24
        BYTE                   Cs3
        BYTE   W24
        BYTE           N42     Ds3
        BYTE   W24
        BYTE   W03
        BYTE           MOD     35
        BYTE   W18
        BYTE   PEND
// 016   ----------------------------------------
FE4Title_2_16:
        BYTE   W03
        BYTE           MOD     0
        BYTE           N18     Ds3   v127
        BYTE   W24
        BYTE                   Cs3
        BYTE   W24
        BYTE           N60     Gs2
        BYTE   W24
        BYTE   W03
        BYTE           MOD     35
        BYTE   W18
        BYTE   PEND
// 017   ----------------------------------------
FE4Title_2_17:
        BYTE   W15
        BYTE           MOD     0
        BYTE           N06     Cs3   v127
        BYTE   W12
        BYTE                   As2
        BYTE   W12
        BYTE                   Cs3
        BYTE   W12
        BYTE           N84     As2
        BYTE   W24
        BYTE   W03
        BYTE           MOD     35
        BYTE   W18
        BYTE   PEND
// 018   ----------------------------------------
FE4Title_2_18:
        BYTE   W48
        BYTE   W03
        BYTE           MOD     0
        BYTE           PAN     c_v-14
        BYTE           VOL     88
        BYTE           VOICE   49
        BYTE           N48     Gs3   v109
        BYTE   W44
        BYTE   W01
        BYTE   PEND
// 019   ----------------------------------------
FE4Title_2_19:
        BYTE   W03
        BYTE           N48     Cs4   v109
        BYTE   W48
        BYTE                   As3
        BYTE   W44
        BYTE   W01
        BYTE   PEND
// 020   ----------------------------------------
FE4Title_2_20:
        BYTE   W03
        BYTE           N24     Ds4   v109
        BYTE   W24
        BYTE                   Cs4
        BYTE   W24
        BYTE           N48     Bn3
        BYTE   W44
        BYTE   W01
        BYTE   PEND
// 021   ----------------------------------------
FE4Title_2_21:
        BYTE   W03
        BYTE           N48     Cs4   v109
        BYTE   W48
        BYTE           N96     Fs3
        BYTE   W44
        BYTE   W01
        BYTE   PEND
// 022   ----------------------------------------
FE4Title_2_22:
        BYTE   W48
        BYTE   W03
        BYTE           N48     Gs3   v127
        BYTE   W44
        BYTE   W01
        BYTE   PEND
// 023   ----------------------------------------
FE4Title_2_23:
        BYTE   W03
        BYTE           N48     Cs4   v127
        BYTE   W48
        BYTE                   As3
        BYTE   W44
        BYTE   W01
        BYTE   PEND
// 024   ----------------------------------------
FE4Title_2_24:
        BYTE   W03
        BYTE           N24     Ds4   v127
        BYTE   W24
        BYTE                   Cs4
        BYTE   W24
        BYTE           N48     Bn3
        BYTE   W44
        BYTE   W01
        BYTE   PEND
// 025   ----------------------------------------
FE4Title_2_25:
        BYTE   W03
        BYTE           N48     Cn4   v127
        BYTE   W48
        BYTE           VOL     96
        BYTE           N48     Cs4
        BYTE   W44
        BYTE   W01
        BYTE   PEND
// 026   ----------------------------------------
        BYTE   W03
        BYTE           VOL     104
        BYTE           N24     Gs4
        BYTE   W24
        BYTE                   Cs5
        BYTE   W24
        BYTE           VOICE   48
        BYTE           N48     As2
        BYTE   GoTo
         POIN2  FE4Title_2_LOOP
        BYTE   W44
        BYTE   W01
// 027   ----------------------------------------
        BYTE   PATT
         POIN2  FE4Title_2_3
// 028   ----------------------------------------
        BYTE   PATT
         POIN2  FE4Title_2_4
// 029   ----------------------------------------
        BYTE   PATT
         POIN2  FE4Title_2_5
// 030   ----------------------------------------
        BYTE   PATT
         POIN2  FE4Title_2_6
// 031   ----------------------------------------
        BYTE   PATT
         POIN2  FE4Title_2_3
// 032   ----------------------------------------
        BYTE   PATT
         POIN2  FE4Title_2_8
// 033   ----------------------------------------
        BYTE   PATT
         POIN2  FE4Title_2_9
// 034   ----------------------------------------
        BYTE   PATT
         POIN2  FE4Title_2_10
// 035   ----------------------------------------
        BYTE   PATT
         POIN2  FE4Title_2_11
// 036   ----------------------------------------
        BYTE   PATT
         POIN2  FE4Title_2_12
// 037   ----------------------------------------
        BYTE   PATT
         POIN2  FE4Title_2_13
// 038   ----------------------------------------
        BYTE   PATT
         POIN2  FE4Title_2_14
// 039   ----------------------------------------
        BYTE   PATT
         POIN2  FE4Title_2_15
// 040   ----------------------------------------
        BYTE   PATT
         POIN2  FE4Title_2_16
// 041   ----------------------------------------
        BYTE   PATT
         POIN2  FE4Title_2_17
// 042   ----------------------------------------
        BYTE   PATT
         POIN2  FE4Title_2_18
// 043   ----------------------------------------
        BYTE   PATT
         POIN2  FE4Title_2_19
// 044   ----------------------------------------
        BYTE   PATT
         POIN2  FE4Title_2_20
// 045   ----------------------------------------
        BYTE   PATT
         POIN2  FE4Title_2_21
// 046   ----------------------------------------
        BYTE   PATT
         POIN2  FE4Title_2_22
// 047   ----------------------------------------
        BYTE   PATT
         POIN2  FE4Title_2_23
// 048   ----------------------------------------
        BYTE   PATT
         POIN2  FE4Title_2_24
// 049   ----------------------------------------
        BYTE   PATT
         POIN2  FE4Title_2_25
// 050   ----------------------------------------
        BYTE   W03
        BYTE           VOL     104
        BYTE           N24     Gs4   v127
        BYTE   W24
        BYTE                   Cs5
        BYTE   W24
        BYTE           VOICE   48
        BYTE           N48     As2
        BYTE   W44
        BYTE   W01
// 051   ----------------------------------------
        BYTE   PATT
         POIN2  FE4Title_2_3
// 052   ----------------------------------------
        BYTE   PATT
         POIN2  FE4Title_2_4
// 053   ----------------------------------------
        BYTE   PATT
         POIN2  FE4Title_2_5
// 054   ----------------------------------------
        BYTE   PATT
         POIN2  FE4Title_2_6
// 055   ----------------------------------------
        BYTE   PATT
         POIN2  FE4Title_2_3
// 056   ----------------------------------------
        BYTE   PATT
         POIN2  FE4Title_2_8
// 057   ----------------------------------------
        BYTE   PATT
         POIN2  FE4Title_2_9
// 058   ----------------------------------------
        BYTE   PATT
         POIN2  FE4Title_2_10
// 059   ----------------------------------------
        BYTE   PATT
         POIN2  FE4Title_2_11
// 060   ----------------------------------------
        BYTE   PATT
         POIN2  FE4Title_2_12
// 061   ----------------------------------------
        BYTE   PATT
         POIN2  FE4Title_2_13
// 062   ----------------------------------------
        BYTE   PATT
         POIN2  FE4Title_2_14
// 063   ----------------------------------------
        BYTE   PATT
         POIN2  FE4Title_2_15
// 064   ----------------------------------------
        BYTE   PATT
         POIN2  FE4Title_2_16
// 065   ----------------------------------------
        BYTE   PATT
         POIN2  FE4Title_2_17
// 066   ----------------------------------------
        BYTE   W48
        BYTE   W03
        BYTE           PAN     c_v-14
        BYTE           VOL     112
        BYTE           MOD     0
        BYTE           VOICE   48
        BYTE           N60     Fs3   v127   gtp3
        BYTE   W24
        BYTE   W03
        BYTE           MOD     35
        BYTE   W18
// 067   ----------------------------------------
        BYTE   W24
        BYTE   W03
        BYTE                   0
        BYTE           N07
        BYTE   W08
        BYTE                   Fs3
        BYTE   W08
        BYTE                   Bn3
        BYTE   W08
        BYTE           N42     Gs3
        BYTE   W24
        BYTE   W03
        BYTE           MOD     35
        BYTE   W18
// 068   ----------------------------------------
        BYTE   W03
        BYTE                   0
        BYTE           N21     Cs4
        BYTE   W24
        BYTE                   Gs4
        BYTE   W24
        BYTE           N60     Gs3   v127   gtp3
        BYTE   W24
        BYTE   W03
        BYTE           MOD     35
        BYTE   W18
// 069   ----------------------------------------
        BYTE   W24
        BYTE   W03
        BYTE                   0
        BYTE           N07
        BYTE   W08
        BYTE                   As3
        BYTE   W08
        BYTE                   Gs3
        BYTE   W08
        BYTE           N42     As3
        BYTE   W24
        BYTE   W03
        BYTE           MOD     35
        BYTE   W18
// 070   ----------------------------------------
        BYTE   W03
        BYTE                   0
        BYTE           N42     Cs4
        BYTE   W24
        BYTE   W03
        BYTE           MOD     35
        BYTE   W21
        BYTE           VOL     96
        BYTE           MOD     0
        BYTE           N60     Cs4   v127   gtp3
        BYTE   W24
        BYTE   W03
        BYTE           MOD     35
        BYTE   W18
// 071   ----------------------------------------
        BYTE   W24
        BYTE   W03
        BYTE                   0
        BYTE           N07
        BYTE   W08
        BYTE                   Cs4
        BYTE   W08
        BYTE                   Cs4
        BYTE   W08
        BYTE           N42
        BYTE   W24
        BYTE   W03
        BYTE           MOD     35
        BYTE   W18
// 072   ----------------------------------------
        BYTE   W03
        BYTE                   0
        BYTE           N42     Gs3
        BYTE   W24
        BYTE   W03
        BYTE           MOD     35
        BYTE   W21
        BYTE           VOL     112
        BYTE           MOD     0
        BYTE           N10     Fs3
        BYTE   W24
        BYTE           N07
        BYTE   W08
        BYTE                   Fs3
        BYTE   W08
        BYTE                   Fs3
        BYTE   W05
// 073   ----------------------------------------
FE4Title_2_73:
        BYTE   W03
        BYTE           N10     Gs3   v127
        BYTE   W24
        BYTE           N07
        BYTE   W08
        BYTE                   Gs3
        BYTE   W08
        BYTE                   Gs3
        BYTE   W08
        BYTE           N10     As3
        BYTE   W24
        BYTE           N07
        BYTE   W08
        BYTE                   As3
        BYTE   W08
        BYTE                   As3
        BYTE   W05
        BYTE   PEND
// 074   ----------------------------------------
        BYTE   W03
        BYTE           N10     Cn4
        BYTE   W24
        BYTE           N21
        BYTE   W24
        BYTE           N10     Fs3
        BYTE   W24
        BYTE           N07
        BYTE   W08
        BYTE                   Fs3
        BYTE   W08
        BYTE                   Fs3
        BYTE   W05
// 075   ----------------------------------------
        BYTE   PATT
         POIN2  FE4Title_2_73
// 076   ----------------------------------------
        BYTE   W03
        BYTE           N21     Ds4   v127
        BYTE   W24
        BYTE                   Gs3
        BYTE   W24
        BYTE           VOL     104
        BYTE           N84     Cs3
        BYTE   W24
        BYTE   W03
        BYTE           MOD     35
        BYTE   W18
// 077   ----------------------------------------
FE4Title_2_77:
        BYTE   W60
        BYTE   W03
        BYTE           MOD     0
        BYTE           N52     Bn2   v127
        BYTE   W24
        BYTE   W03
        BYTE           MOD     35
        BYTE   W06
        BYTE   PEND
// 078   ----------------------------------------
FE4Title_2_78:
        BYTE   W24
        BYTE   W03
        BYTE           MOD     0
        BYTE           N10     Cs3   v127
        BYTE   W24
        BYTE           N84
        BYTE   W24
        BYTE   W03
        BYTE           MOD     35
        BYTE   W18
        BYTE   PEND
// 079   ----------------------------------------
        BYTE   PATT
         POIN2  FE4Title_2_77
// 080   ----------------------------------------
        BYTE   PATT
         POIN2  FE4Title_2_78
// 081   ----------------------------------------
        BYTE   W96
// 082   ----------------------------------------
        BYTE   W48
        BYTE   W03
        BYTE   FINE

//****************** Track 3 (Midi-Chn.3) ******************//

FE4Title_3:
        BYTE   KEYSH   FE4Title_key+0
// 000   ----------------------------------------
        BYTE   W02
        BYTE           BENDR   12
        BYTE           VOL     64
        BYTE   W48
        BYTE   W01
        BYTE           PAN     c_v-20
        BYTE           VOL     0
        BYTE           VOICE   60
        BYTE           TIE     Cs2   v127
        BYTE   W06
        BYTE           VOL     6
        BYTE   W06
        BYTE                   12
        BYTE   W06
        BYTE                   18
        BYTE   W06
        BYTE                   24
        BYTE   W06
        BYTE                   30
        BYTE   W06
        BYTE                   36
        BYTE   W06
        BYTE                   42
        BYTE   W03
// 001   ----------------------------------------
        BYTE   PATT
         POIN2  FE4Title_2_1
// 002   ----------------------------------------
        BYTE   W48
        BYTE   W03
        BYTE           EOT     Cs2
FE4Title_3_LOOP:
        BYTE           PAN     c_v-24
        BYTE           VOL     104
        BYTE           VOICE   48
        BYTE           N42     Fs2   v127
        BYTE   W44
        BYTE   W01
// 003   ----------------------------------------
FE4Title_3_3:
        BYTE   W03
        BYTE           N42     As2   v127
        BYTE   W48
        BYTE                   Bn2
        BYTE   W44
        BYTE   W01
        BYTE   PEND
// 004   ----------------------------------------
FE4Title_3_4:
        BYTE   W03
        BYTE           N42     Gs2   v127
        BYTE   W48
        BYTE                   Gs2
        BYTE   W44
        BYTE   W01
        BYTE   PEND
// 005   ----------------------------------------
FE4Title_3_5:
        BYTE   W03
        BYTE           N14     Cs2   v127
        BYTE   W16
        BYTE                   Ds2
        BYTE   W16
        BYTE                   Fn2
        BYTE   W16
        BYTE           N42     As2
        BYTE   W44
        BYTE   W01
        BYTE   PEND
// 006   ----------------------------------------
FE4Title_3_6:
        BYTE   W03
        BYTE           N42     Gs2   v127
        BYTE   W48
        BYTE                   Fs2
        BYTE   W44
        BYTE   W01
        BYTE   PEND
// 007   ----------------------------------------
        BYTE   PATT
         POIN2  FE4Title_3_3
// 008   ----------------------------------------
        BYTE   PATT
         POIN2  FE4Title_3_4
// 009   ----------------------------------------
FE4Title_3_9:
        BYTE   W03
        BYTE           N42     Cs3   v127
        BYTE   W48
        BYTE           N60     As2   v127   gtp3
        BYTE   W44
        BYTE   W01
        BYTE   PEND
// 010   ----------------------------------------
FE4Title_3_10:
        BYTE   W48
        BYTE   W03
        BYTE           PAN     c_v-4
        BYTE           VOL     96
        BYTE           VOICE   60
        BYTE           N84     Fs2   v127
        BYTE   W24
        BYTE   W03
        BYTE           MOD     35
        BYTE   W18
        BYTE   PEND
// 011   ----------------------------------------
FE4Title_3_11:
        BYTE   W48
        BYTE   W03
        BYTE           MOD     0
        BYTE           N42     Fs2   v127
        BYTE   W24
        BYTE   W03
        BYTE           MOD     35
        BYTE   W18
        BYTE   PEND
// 012   ----------------------------------------
FE4Title_3_12:
        BYTE   W03
        BYTE           MOD     0
        BYTE           N21     Ds2   v127
        BYTE   W24
        BYTE           N10
        BYTE   W12
        BYTE                   Ds2
        BYTE   W12
        BYTE           N30     Ds2   v127   gtp1
        BYTE   W24
        BYTE   W03
        BYTE           MOD     35
        BYTE   W09
        BYTE                   0
        BYTE           N05
        BYTE   W06
        BYTE                   Ds2
        BYTE   W03
        BYTE   PEND
// 013   ----------------------------------------
FE4Title_3_13:
        BYTE   W03
        BYTE           N05     Ds2   v127
        BYTE   W12
        BYTE                   Cs2
        BYTE   W12
        BYTE           N21     Ds2
        BYTE   W24
        BYTE           N42     Cs2
        BYTE   W24
        BYTE   W03
        BYTE           MOD     35
        BYTE   W18
        BYTE   PEND
// 014   ----------------------------------------
FE4Title_3_14:
        BYTE   W03
        BYTE           MOD     0
        BYTE           N21     Cs2   v127
        BYTE   W24
        BYTE                   Gs1
        BYTE   W24
        BYTE           N60     Fs2   v127   gtp3
        BYTE   W24
        BYTE   W03
        BYTE           MOD     35
        BYTE   W18
        BYTE   PEND
// 015   ----------------------------------------
FE4Title_3_15:
        BYTE   W24
        BYTE   W03
        BYTE           MOD     0
        BYTE           N21     As2   v127
        BYTE   W24
        BYTE           N42     Bn2
        BYTE   W24
        BYTE   W03
        BYTE           MOD     35
        BYTE   W18
        BYTE   PEND
// 016   ----------------------------------------
FE4Title_3_16:
        BYTE   W03
        BYTE           MOD     0
        BYTE           N21     Bn2   v127
        BYTE   W24
        BYTE                   As2
        BYTE   W24
        BYTE           N42     Ds2
        BYTE   W24
        BYTE   W03
        BYTE           MOD     35
        BYTE   W18
        BYTE   PEND
// 017   ----------------------------------------
FE4Title_3_17:
        BYTE   W03
        BYTE           MOD     0
        BYTE           N42     Gs2   v127
        BYTE   W24
        BYTE   W03
        BYTE           MOD     35
        BYTE   W21
        BYTE                   0
        BYTE           N72     Fs2   v127   gtp1
        BYTE   W24
        BYTE   W03
        BYTE           MOD     35
        BYTE   W18
        BYTE   PEND
// 018   ----------------------------------------
FE4Title_3_18:
        BYTE   W48
        BYTE   W03
        BYTE           MOD     0
        BYTE           PAN     c_v+26
        BYTE           VOL     88
        BYTE           VOICE   49
        BYTE           N42     Gs2   v109
        BYTE   W44
        BYTE   W01
        BYTE   PEND
// 019   ----------------------------------------
FE4Title_3_19:
        BYTE   W03
        BYTE           N42     Cs3   v109
        BYTE   W48
        BYTE                   As2
        BYTE   W44
        BYTE   W01
        BYTE   PEND
// 020   ----------------------------------------
FE4Title_3_20:
        BYTE   W03
        BYTE           N21     Ds3   v109
        BYTE   W24
        BYTE                   Cs3
        BYTE   W24
        BYTE           N42     Bn2
        BYTE   W44
        BYTE   W01
        BYTE   PEND
// 021   ----------------------------------------
FE4Title_3_21:
        BYTE   W03
        BYTE           N42     Cs3   v109
        BYTE   W48
        BYTE           N84     Fs2
        BYTE   W44
        BYTE   W01
        BYTE   PEND
// 022   ----------------------------------------
FE4Title_3_22:
        BYTE   W48
        BYTE   W03
        BYTE           N42     Gs2   v127
        BYTE   W44
        BYTE   W01
        BYTE   PEND
// 023   ----------------------------------------
FE4Title_3_23:
        BYTE   W03
        BYTE           N42     Cs3   v127
        BYTE   W48
        BYTE                   As2
        BYTE   W44
        BYTE   W01
        BYTE   PEND
// 024   ----------------------------------------
FE4Title_3_24:
        BYTE   W03
        BYTE           N21     Ds3   v127
        BYTE   W24
        BYTE                   Cs3
        BYTE   W24
        BYTE           N42     Bn2
        BYTE   W44
        BYTE   W01
        BYTE   PEND
// 025   ----------------------------------------
FE4Title_3_25:
        BYTE   W03
        BYTE           N42     Cn3   v127
        BYTE   W48
        BYTE           VOL     96
        BYTE           N42     Cs3
        BYTE   W44
        BYTE   W01
        BYTE   PEND
// 026   ----------------------------------------
        BYTE   W03
        BYTE           VOL     104
        BYTE           N21     Gs3
        BYTE   W24
        BYTE                   Cs4
        BYTE   W24
        BYTE           VOICE   48
        BYTE           N42     Fs2
        BYTE           PAN     c_v-24
        BYTE   GoTo
         POIN2  FE4Title_3_LOOP
        BYTE   W44
        BYTE   W01
// 027   ----------------------------------------
        BYTE   PATT
         POIN2  FE4Title_3_3
// 028   ----------------------------------------
        BYTE   PATT
         POIN2  FE4Title_3_4
// 029   ----------------------------------------
        BYTE   PATT
         POIN2  FE4Title_3_5
// 030   ----------------------------------------
        BYTE   PATT
         POIN2  FE4Title_3_6
// 031   ----------------------------------------
        BYTE   PATT
         POIN2  FE4Title_3_3
// 032   ----------------------------------------
        BYTE   PATT
         POIN2  FE4Title_3_4
// 033   ----------------------------------------
        BYTE   PATT
         POIN2  FE4Title_3_9
// 034   ----------------------------------------
        BYTE   PATT
         POIN2  FE4Title_3_10
// 035   ----------------------------------------
        BYTE   PATT
         POIN2  FE4Title_3_11
// 036   ----------------------------------------
        BYTE   PATT
         POIN2  FE4Title_3_12
// 037   ----------------------------------------
        BYTE   PATT
         POIN2  FE4Title_3_13
// 038   ----------------------------------------
        BYTE   PATT
         POIN2  FE4Title_3_14
// 039   ----------------------------------------
        BYTE   PATT
         POIN2  FE4Title_3_15
// 040   ----------------------------------------
        BYTE   PATT
         POIN2  FE4Title_3_16
// 041   ----------------------------------------
        BYTE   PATT
         POIN2  FE4Title_3_17
// 042   ----------------------------------------
        BYTE   PATT
         POIN2  FE4Title_3_18
// 043   ----------------------------------------
        BYTE   PATT
         POIN2  FE4Title_3_19
// 044   ----------------------------------------
        BYTE   PATT
         POIN2  FE4Title_3_20
// 045   ----------------------------------------
        BYTE   PATT
         POIN2  FE4Title_3_21
// 046   ----------------------------------------
        BYTE   PATT
         POIN2  FE4Title_3_22
// 047   ----------------------------------------
        BYTE   PATT
         POIN2  FE4Title_3_23
// 048   ----------------------------------------
        BYTE   PATT
         POIN2  FE4Title_3_24
// 049   ----------------------------------------
        BYTE   PATT
         POIN2  FE4Title_3_25
// 050   ----------------------------------------
        BYTE   W03
        BYTE           VOL     104
        BYTE           N21     Gs3   v127
        BYTE   W24
        BYTE                   Cs4
        BYTE   W24
        BYTE           PAN     c_v-24
        BYTE           VOICE   48
        BYTE           N42     Fs2
        BYTE   W44
        BYTE   W01
// 051   ----------------------------------------
        BYTE   PATT
         POIN2  FE4Title_3_3
// 052   ----------------------------------------
        BYTE   PATT
         POIN2  FE4Title_3_4
// 053   ----------------------------------------
        BYTE   PATT
         POIN2  FE4Title_3_5
// 054   ----------------------------------------
        BYTE   PATT
         POIN2  FE4Title_3_6
// 055   ----------------------------------------
        BYTE   PATT
         POIN2  FE4Title_3_3
// 056   ----------------------------------------
        BYTE   PATT
         POIN2  FE4Title_3_4
// 057   ----------------------------------------
        BYTE   PATT
         POIN2  FE4Title_3_9
// 058   ----------------------------------------
        BYTE   PATT
         POIN2  FE4Title_3_10
// 059   ----------------------------------------
        BYTE   PATT
         POIN2  FE4Title_3_11
// 060   ----------------------------------------
        BYTE   PATT
         POIN2  FE4Title_3_12
// 061   ----------------------------------------
        BYTE   PATT
         POIN2  FE4Title_3_13
// 062   ----------------------------------------
        BYTE   PATT
         POIN2  FE4Title_3_14
// 063   ----------------------------------------
        BYTE   PATT
         POIN2  FE4Title_3_15
// 064   ----------------------------------------
        BYTE   PATT
         POIN2  FE4Title_3_16
// 065   ----------------------------------------
        BYTE   PATT
         POIN2  FE4Title_3_17
// 066   ----------------------------------------
        BYTE   W48
        BYTE   W03
        BYTE           PAN     c_v-19
        BYTE           MOD     0
        BYTE           N54     Gs2   v127
        BYTE   W24
        BYTE   W03
        BYTE           MOD     35
        BYTE   W18
// 067   ----------------------------------------
        BYTE   W24
        BYTE   W03
        BYTE                   0
        BYTE           N06
        BYTE   W08
        BYTE                   Gs2
        BYTE   W08
        BYTE                   Gs2
        BYTE   W08
        BYTE           N72
        BYTE   W24
        BYTE   W03
        BYTE           MOD     35
        BYTE   W18
// 068   ----------------------------------------
        BYTE   W48
        BYTE   W03
        BYTE                   0
        BYTE           N54     Bn2
        BYTE   W24
        BYTE   W03
        BYTE           MOD     35
        BYTE   W18
// 069   ----------------------------------------
        BYTE   W24
        BYTE   W03
        BYTE                   0
        BYTE           N06
        BYTE   W08
        BYTE                   Bn2
        BYTE   W08
        BYTE                   Bn2
        BYTE   W08
        BYTE           N72     As2
        BYTE   W24
        BYTE   W03
        BYTE           MOD     35
        BYTE   W18
// 070   ----------------------------------------
        BYTE   W48
        BYTE   W03
        BYTE                   0
        BYTE           N54     An2
        BYTE   W24
        BYTE   W03
        BYTE           MOD     35
        BYTE   W18
// 071   ----------------------------------------
        BYTE   W24
        BYTE   W03
        BYTE                   0
        BYTE           N06
        BYTE   W08
        BYTE                   Gs2
        BYTE   W08
        BYTE                   Fs2
        BYTE   W08
        BYTE           N72     Gs2
        BYTE   W24
        BYTE   W03
        BYTE           MOD     35
        BYTE   W18
// 072   ----------------------------------------
        BYTE   W48
        BYTE   W03
        BYTE                   0
        BYTE           N18     Ds2
        BYTE   W24
        BYTE           N06
        BYTE   W08
        BYTE                   Ds2
        BYTE   W08
        BYTE                   Ds2
        BYTE   W05
// 073   ----------------------------------------
FE4Title_3_73:
        BYTE   W03
        BYTE           N18     Fn2   v127
        BYTE   W24
        BYTE           N06
        BYTE   W08
        BYTE                   Fn2
        BYTE   W08
        BYTE                   Fn2
        BYTE   W08
        BYTE           N18     Fs2
        BYTE   W24
        BYTE           N06
        BYTE   W08
        BYTE                   Fs2
        BYTE   W08
        BYTE                   Fs2
        BYTE   W05
        BYTE   PEND
// 074   ----------------------------------------
        BYTE   W03
        BYTE           N15     Gs2
        BYTE   W24
        BYTE           N18
        BYTE   W24
        BYTE                   Ds2
        BYTE   W24
        BYTE           N06
        BYTE   W08
        BYTE                   Ds2
        BYTE   W08
        BYTE                   Ds2
        BYTE   W05
// 075   ----------------------------------------
        BYTE   PATT
         POIN2  FE4Title_3_73
// 076   ----------------------------------------
        BYTE   W03
        BYTE           N15     Gs2   v127
        BYTE   W24
        BYTE           N18     Gs1
        BYTE   W24
        BYTE           VOICE   32
        BYTE   W03
        BYTE           MOD     35
        BYTE   W21
        BYTE                   0
        BYTE           N18
        BYTE   W21
// 077   ----------------------------------------
FE4Title_3_77:
        BYTE   W06
        BYTE           MOD     35
        BYTE   W09
        BYTE                   0
        BYTE           N18     Gs1   v127
        BYTE   W24
        BYTE   W03
        BYTE           MOD     35
        BYTE   W21
        BYTE                   0
        BYTE           N18     Fs1
        BYTE   W24
        BYTE   W03
        BYTE           MOD     35
        BYTE   W06
        BYTE   PEND
// 078   ----------------------------------------
        BYTE   W15
        BYTE                   0
        BYTE           N18
        BYTE   W24
        BYTE   W03
        BYTE           MOD     35
        BYTE   W32
        BYTE   W01
        BYTE                   0
        BYTE           N18     Gs1
        BYTE   W21
// 079   ----------------------------------------
        BYTE   PATT
         POIN2  FE4Title_3_77
// 080   ----------------------------------------
        BYTE   W15
        BYTE           MOD     0
        BYTE           N18     Fs1   v127
        BYTE   W24
        BYTE   W03
        BYTE           MOD     35
        BYTE   W09
        BYTE                   0
        BYTE           N24     Gs1   v127   gtp3
        BYTE   W24
        BYTE   W03
        BYTE           MOD     35
        BYTE   W09
        BYTE                   0
        BYTE           N24     Gs1   v127   gtp3
        BYTE   W09
// 081   ----------------------------------------
        BYTE   W18
        BYTE           MOD     35
        BYTE   W09
        BYTE                   0
        BYTE           N18
        BYTE   W24
        BYTE                   Cs1
        BYTE   W44
        BYTE   W01
// 082   ----------------------------------------
        BYTE   W48
        BYTE   W03
        BYTE   FINE

//****************** Track 4 (Midi-Chn.4) ******************//

FE4Title_4:
        BYTE   KEYSH   FE4Title_key+0
// 000   ----------------------------------------
        BYTE           VOICE   66
        BYTE   W02
        BYTE           BENDR   12
        BYTE           VOL     64
        BYTE   W92
        BYTE   W02
// 001   ----------------------------------------
        BYTE   W96
// 002   ----------------------------------------
        BYTE   W48
        BYTE   W03
FE4Title_4_LOOP:
        BYTE           PAN     c_v+16
        BYTE           VOL     88
        BYTE           N07     Cs3   v127
        BYTE   W36
        BYTE           N03
        BYTE   W06
        BYTE                   Cs3
        BYTE   W03
// 003   ----------------------------------------
FE4Title_4_3:
        BYTE   W03
        BYTE           N07     Cs3   v127
        BYTE   W12
        BYTE                   Cs3
        BYTE   W24
        BYTE                   Cs3
        BYTE   W12
        BYTE                   Ds3
        BYTE   W36
        BYTE           N03
        BYTE   W06
        BYTE                   Ds3
        BYTE   W03
        BYTE   PEND
// 004   ----------------------------------------
FE4Title_4_4:
        BYTE   W03
        BYTE           N07     Ds3   v127
        BYTE   W12
        BYTE                   Ds3
        BYTE   W24
        BYTE                   Ds3
        BYTE   W12
        BYTE                   Ds3
        BYTE   W36
        BYTE           N03
        BYTE   W06
        BYTE                   Ds3
        BYTE   W03
        BYTE   PEND
// 005   ----------------------------------------
FE4Title_4_5:
        BYTE   W03
        BYTE           N07     Ds3   v127
        BYTE   W12
        BYTE                   Ds3
        BYTE   W24
        BYTE                   Ds3
        BYTE   W12
        BYTE                   Cs3
        BYTE   W36
        BYTE           N03
        BYTE   W06
        BYTE                   Cs3
        BYTE   W03
        BYTE   PEND
// 006   ----------------------------------------
FE4Title_4_6:
        BYTE   W03
        BYTE           N15     Cs3   v127
        BYTE   W24
        BYTE                   Gs2
        BYTE   W24
        BYTE           N07     Cs3
        BYTE   W36
        BYTE           N03
        BYTE   W06
        BYTE                   Cs3
        BYTE   W03
        BYTE   PEND
// 007   ----------------------------------------
FE4Title_4_7:
        BYTE   W03
        BYTE           N07     Cs3   v127
        BYTE   W12
        BYTE                   Cs3
        BYTE   W24
        BYTE                   Cs3
        BYTE   W12
        BYTE                   Fs3
        BYTE   W36
        BYTE           N03
        BYTE   W06
        BYTE                   Fs3
        BYTE   W03
        BYTE   PEND
// 008   ----------------------------------------
FE4Title_4_8:
        BYTE   W03
        BYTE           N07     Fs3   v127
        BYTE   W12
        BYTE                   Fs3
        BYTE   W24
        BYTE                   Fs3
        BYTE   W12
        BYTE                   Ds3
        BYTE   W36
        BYTE           N03
        BYTE   W06
        BYTE                   Ds3
        BYTE   W03
        BYTE   PEND
// 009   ----------------------------------------
FE4Title_4_9:
        BYTE   W03
        BYTE           N15     Ds3   v127
        BYTE   W24
        BYTE                   Cs3
        BYTE   W24
        BYTE           N60
        BYTE   W44
        BYTE   W01
        BYTE   PEND
// 010   ----------------------------------------
FE4Title_4_10:
        BYTE   W48
        BYTE   W03
        BYTE           PAN     c_v-39
        BYTE           VOL     104
        BYTE   W44
        BYTE   W01
        BYTE   PEND
// 011   ----------------------------------------
        BYTE   W96
// 012   ----------------------------------------
FE4Title_4_12:
        BYTE   W24
        BYTE   W03
        BYTE           N12     Fs4   v127
        BYTE   W12
        BYTE                   Fn4
        BYTE   W12
        BYTE           N60     Ds4
        BYTE   W44
        BYTE   W01
        BYTE   PEND
// 013   ----------------------------------------
FE4Title_4_13:
        BYTE   W15
        BYTE           N07     Fn4   v127
        BYTE   W12
        BYTE                   Fs4
        BYTE   W12
        BYTE                   Gs4
        BYTE   W12
        BYTE           N24     Fs4
        BYTE   W24
        BYTE                   Cs4
        BYTE   W21
        BYTE   PEND
// 014   ----------------------------------------
FE4Title_4_14:
        BYTE   W03
        BYTE           N24     Gs4   v127
        BYTE   W24
        BYTE                   Cs5
        BYTE   W24
        BYTE           N72     As4
        BYTE   W44
        BYTE   W01
        BYTE   PEND
// 015   ----------------------------------------
FE4Title_4_15:
        BYTE   W24
        BYTE   W03
        BYTE           N24     As4   v127
        BYTE   W24
        BYTE           N48     Bn4
        BYTE   W44
        BYTE   W01
        BYTE   PEND
// 016   ----------------------------------------
FE4Title_4_16:
        BYTE   W03
        BYTE           N24     Bn4   v127
        BYTE   W24
        BYTE                   As4
        BYTE   W24
        BYTE           N60     Gs4
        BYTE   W44
        BYTE   W01
        BYTE   PEND
// 017   ----------------------------------------
FE4Title_4_17:
        BYTE   W15
        BYTE           N07     As4   v127
        BYTE   W12
        BYTE                   Bn4
        BYTE   W12
        BYTE                   Fn4
        BYTE   W12
        BYTE           N84     Fs4
        BYTE   W44
        BYTE   W01
        BYTE   PEND
// 018   ----------------------------------------
        BYTE   W48
        BYTE   W03
        BYTE           VOL     96
        BYTE   W44
        BYTE   W01
// 019   ----------------------------------------
        BYTE   W96
// 020   ----------------------------------------
        BYTE   W96
// 021   ----------------------------------------
        BYTE   W96
// 022   ----------------------------------------
FE4Title_4_22:
        BYTE   W48
        BYTE   W03
        BYTE           N24     Ds4   v127
        BYTE   W24
        BYTE           N36     Bn4
        BYTE   W21
        BYTE   PEND
// 023   ----------------------------------------
FE4Title_4_23:
        BYTE   W15
        BYTE           N12     Gs4   v127
        BYTE   W12
        BYTE                   Fs4
        BYTE   W12
        BYTE                   Fn4
        BYTE   W12
        BYTE           N36     Cs5
        BYTE   W36
        BYTE           N12     As4
        BYTE   W09
        BYTE   PEND
// 024   ----------------------------------------
FE4Title_4_24:
        BYTE   W03
        BYTE           N21     Fs5   v127
        BYTE   W24
        BYTE           N12
        BYTE   W12
        BYTE                   Fn5
        BYTE   W12
        BYTE           PAN     c_v+36
        BYTE           VOL     80
        BYTE           N06     Ds4
        BYTE   W06
        BYTE                   Fn4
        BYTE   W06
        BYTE                   Ds4
        BYTE   W06
        BYTE                   Fn4
        BYTE   W06
        BYTE                   Ds4
        BYTE   W06
        BYTE                   Fn4
        BYTE   W06
        BYTE                   Ds4
        BYTE   W06
        BYTE                   Fn4
        BYTE   W03
        BYTE   PEND
// 025   ----------------------------------------
FE4Title_4_25:
        BYTE   W03
        BYTE           N06     Ds4   v127
        BYTE   W06
        BYTE                   Fn4
        BYTE   W06
        BYTE                   Ds4
        BYTE   W06
        BYTE                   Fn4
        BYTE   W06
        BYTE                   Ds4
        BYTE   W06
        BYTE                   Fn4
        BYTE   W06
        BYTE                   Fs4
        BYTE   W06
        BYTE                   Gs4
        BYTE   W06
        BYTE           N24     As4
        BYTE   W24
        BYTE                   Cs4
        BYTE   W21
        BYTE   PEND
// 026   ----------------------------------------
        BYTE   W03
        BYTE                   Gs4
        BYTE   W24
        BYTE                   Cs5
        BYTE   W24
        BYTE           N07     Cs3
        BYTE           VOL     88
        BYTE           PAN     c_v+16
        BYTE   GoTo
         POIN2  FE4Title_4_LOOP
        BYTE   W36
        BYTE           N03
        BYTE   W06
        BYTE                   Cs3
        BYTE   W03
// 027   ----------------------------------------
        BYTE   PATT
         POIN2  FE4Title_4_3
// 028   ----------------------------------------
        BYTE   PATT
         POIN2  FE4Title_4_4
// 029   ----------------------------------------
        BYTE   PATT
         POIN2  FE4Title_4_5
// 030   ----------------------------------------
        BYTE   PATT
         POIN2  FE4Title_4_6
// 031   ----------------------------------------
        BYTE   PATT
         POIN2  FE4Title_4_7
// 032   ----------------------------------------
        BYTE   PATT
         POIN2  FE4Title_4_8
// 033   ----------------------------------------
        BYTE   PATT
         POIN2  FE4Title_4_9
// 034   ----------------------------------------
        BYTE   PATT
         POIN2  FE4Title_4_10
// 035   ----------------------------------------
        BYTE   W96
// 036   ----------------------------------------
        BYTE   PATT
         POIN2  FE4Title_4_12
// 037   ----------------------------------------
        BYTE   PATT
         POIN2  FE4Title_4_13
// 038   ----------------------------------------
        BYTE   PATT
         POIN2  FE4Title_4_14
// 039   ----------------------------------------
        BYTE   PATT
         POIN2  FE4Title_4_15
// 040   ----------------------------------------
        BYTE   PATT
         POIN2  FE4Title_4_16
// 041   ----------------------------------------
        BYTE   PATT
         POIN2  FE4Title_4_17
// 042   ----------------------------------------
        BYTE   W48
        BYTE   W03
        BYTE           VOL     96
        BYTE   W44
        BYTE   W01
// 043   ----------------------------------------
        BYTE   W96
// 044   ----------------------------------------
        BYTE   W96
// 045   ----------------------------------------
        BYTE   W96
// 046   ----------------------------------------
        BYTE   PATT
         POIN2  FE4Title_4_22
// 047   ----------------------------------------
        BYTE   PATT
         POIN2  FE4Title_4_23
// 048   ----------------------------------------
        BYTE   PATT
         POIN2  FE4Title_4_24
// 049   ----------------------------------------
        BYTE   PATT
         POIN2  FE4Title_4_25
// 050   ----------------------------------------
        BYTE   W03
        BYTE           N24     Gs4   v127
        BYTE   W24
        BYTE                   Cs5
        BYTE   W24
        BYTE           PAN     c_v+16
        BYTE           VOL     88
        BYTE           N07     Cs3
        BYTE   W36
        BYTE           N03
        BYTE   W06
        BYTE                   Cs3
        BYTE   W03
// 051   ----------------------------------------
        BYTE   PATT
         POIN2  FE4Title_4_3
// 052   ----------------------------------------
        BYTE   PATT
         POIN2  FE4Title_4_4
// 053   ----------------------------------------
        BYTE   PATT
         POIN2  FE4Title_4_5
// 054   ----------------------------------------
        BYTE   PATT
         POIN2  FE4Title_4_6
// 055   ----------------------------------------
        BYTE   PATT
         POIN2  FE4Title_4_7
// 056   ----------------------------------------
        BYTE   PATT
         POIN2  FE4Title_4_8
// 057   ----------------------------------------
        BYTE   PATT
         POIN2  FE4Title_4_9
// 058   ----------------------------------------
        BYTE   PATT
         POIN2  FE4Title_4_10
// 059   ----------------------------------------
        BYTE   W96
// 060   ----------------------------------------
        BYTE   PATT
         POIN2  FE4Title_4_12
// 061   ----------------------------------------
        BYTE   PATT
         POIN2  FE4Title_4_13
// 062   ----------------------------------------
        BYTE   PATT
         POIN2  FE4Title_4_14
// 063   ----------------------------------------
        BYTE   PATT
         POIN2  FE4Title_4_15
// 064   ----------------------------------------
        BYTE   PATT
         POIN2  FE4Title_4_16
// 065   ----------------------------------------
        BYTE   PATT
         POIN2  FE4Title_4_17
// 066   ----------------------------------------
        BYTE   W48
        BYTE   W03
        BYTE           VOL     96
        BYTE   W44
        BYTE   W01
// 067   ----------------------------------------
        BYTE   W72
        BYTE   W03
        BYTE           N21     Gs3   v127
        BYTE   W21
// 068   ----------------------------------------
        BYTE   W03
        BYTE                   Cs4
        BYTE   W24
        BYTE                   Fn4
        BYTE   W24
        BYTE           N60     Gs4   v127   gtp3
        BYTE   W44
        BYTE   W01
// 069   ----------------------------------------
        BYTE   W24
        BYTE   W03
        BYTE           N07
        BYTE   W08
        BYTE                   As4
        BYTE   W08
        BYTE                   Gs4
        BYTE   W08
        BYTE           N21     Fs4
        BYTE   W24
        BYTE                   As3
        BYTE   W21
// 070   ----------------------------------------
        BYTE   W03
        BYTE                   Cs4
        BYTE   W24
        BYTE                   Fs4
        BYTE   W24
        BYTE           N60     An4   v127   gtp3
        BYTE   W44
        BYTE   W01
// 071   ----------------------------------------
        BYTE   W24
        BYTE   W03
        BYTE           N07
        BYTE   W08
        BYTE                   Gs4
        BYTE   W08
        BYTE                   Fs4
        BYTE   W08
        BYTE           N30     Gs4
        BYTE   W44
        BYTE   W01
// 072   ----------------------------------------
        BYTE   W03
        BYTE                   Fn4
        BYTE   W48
        BYTE           N21     Ds3
        BYTE   W24
        BYTE           N07
        BYTE   W08
        BYTE                   Ds3
        BYTE   W08
        BYTE                   Ds3
        BYTE   W05
// 073   ----------------------------------------
FE4Title_4_73:
        BYTE   W03
        BYTE           N21     Fn3   v127
        BYTE   W24
        BYTE           N07
        BYTE   W08
        BYTE                   Fn3
        BYTE   W08
        BYTE                   Fn3
        BYTE   W08
        BYTE           N21     Fs3
        BYTE   W24
        BYTE           N07
        BYTE   W08
        BYTE                   Fs3
        BYTE   W08
        BYTE                   Fs3
        BYTE   W05
        BYTE   PEND
// 074   ----------------------------------------
FE4Title_4_74:
        BYTE   W03
        BYTE           N15     Gs3   v127
        BYTE   W24
        BYTE           N21
        BYTE   W24
        BYTE                   Fs3
        BYTE   W24
        BYTE           N07
        BYTE   W08
        BYTE                   Fs3
        BYTE   W08
        BYTE                   Fs3
        BYTE   W05
        BYTE   PEND
// 075   ----------------------------------------
FE4Title_4_75:
        BYTE   W03
        BYTE           N21     Gs3   v127
        BYTE   W24
        BYTE           N07
        BYTE   W08
        BYTE                   Gs3
        BYTE   W08
        BYTE                   Gs3
        BYTE   W08
        BYTE           N21     As3
        BYTE   W24
        BYTE           N07
        BYTE   W08
        BYTE                   As3
        BYTE   W08
        BYTE                   As3
        BYTE   W05
        BYTE   PEND
// 076   ----------------------------------------
FE4Title_4_76:
        BYTE   W03
        BYTE           N15     Cn4   v127
        BYTE   W24
        BYTE           N21
        BYTE   W48
        BYTE                   Cs3
        BYTE   W20
        BYTE           MOD     50
        BYTE   W01
        BYTE   PEND
// 077   ----------------------------------------
FE4Title_4_77:
        BYTE   W03
        BYTE           MOD     0
        BYTE           N21     Gs3   v127
        BYTE   W20
        BYTE           MOD     50
        BYTE   W04
        BYTE                   0
        BYTE           N07     Fs3
        BYTE   W12
        BYTE                   Fn3
        BYTE   W12
        BYTE                   Fn3
        BYTE   W12
        BYTE                   Ds3
        BYTE   W12
        BYTE           N42     Fs3
        BYTE   W20
        BYTE           MOD     50
        BYTE   W01
        BYTE   PEND
// 078   ----------------------------------------
FE4Title_4_78:
        BYTE   W24
        BYTE   W03
        BYTE           MOD     0
        BYTE           N21     As3   v127
        BYTE   W20
        BYTE           MOD     50
        BYTE   W04
        BYTE                   0
        BYTE           N60     Gs3   v127   gtp3
        BYTE   W20
        BYTE           MOD     50
        BYTE   W24
        BYTE   W01
        BYTE   PEND
// 079   ----------------------------------------
FE4Title_4_79:
        BYTE   W24
        BYTE   W03
        BYTE           MOD     0
        BYTE           N07     Fs3   v127
        BYTE   W12
        BYTE                   Fn3
        BYTE   W12
        BYTE                   Fn3
        BYTE   W12
        BYTE                   Ds3
        BYTE   W12
        BYTE           N42     Fs3
        BYTE   W20
        BYTE           MOD     50
        BYTE   W01
        BYTE   PEND
// 080   ----------------------------------------
FE4Title_4_80:
        BYTE   W24
        BYTE   W03
        BYTE           MOD     0
        BYTE           N07     As3   v127
        BYTE   W12
        BYTE                   Fs3
        BYTE   W12
        BYTE           N96     Gs3
        BYTE   W20
        BYTE           MOD     50
        BYTE   W24
        BYTE   W01
        BYTE   PEND
// 081   ----------------------------------------
        BYTE   W48
        BYTE   W03
        BYTE                   0
        BYTE           N24     Cs3
        BYTE   W20
        BYTE           MOD     50
        BYTE   W24
        BYTE   W01
// 082   ----------------------------------------
        BYTE   W48
        BYTE   W03
        BYTE   FINE

//****************** Track 5 (Midi-Chn.5) ******************//

FE4Title_5:
        BYTE   KEYSH   FE4Title_key+0
// 000   ----------------------------------------
        BYTE   PATT
         POIN2  FE4Title_1_0
// 001   ----------------------------------------
        BYTE   W96
// 002   ----------------------------------------
        BYTE   W48
        BYTE   W03
FE4Title_5_LOOP:
        BYTE           PAN     c_v+46
        BYTE           VOL     88
        BYTE           VOICE   60
        BYTE           N07     Fs2   v127
        BYTE   W36
        BYTE           N03
        BYTE   W06
        BYTE                   Fs2
        BYTE   W03
// 003   ----------------------------------------
FE4Title_5_3:
        BYTE   W03
        BYTE           N07     Fs2   v127
        BYTE   W12
        BYTE                   Fs2
        BYTE   W24
        BYTE                   Fs2
        BYTE   W12
        BYTE                   Gs2
        BYTE   W36
        BYTE           N03
        BYTE   W06
        BYTE                   Gs2
        BYTE   W03
        BYTE   PEND
// 004   ----------------------------------------
FE4Title_5_4:
        BYTE   W03
        BYTE           N07     Gs2   v127
        BYTE   W12
        BYTE                   Gs2
        BYTE   W24
        BYTE                   Gs2
        BYTE   W12
        BYTE                   Gs2
        BYTE   W36
        BYTE           N03
        BYTE   W06
        BYTE                   Gs2
        BYTE   W03
        BYTE   PEND
// 005   ----------------------------------------
FE4Title_5_5:
        BYTE   W03
        BYTE           N07     Gs2   v127
        BYTE   W12
        BYTE                   Gs2
        BYTE   W24
        BYTE                   Gs2
        BYTE   W12
        BYTE                   As2
        BYTE   W36
        BYTE           N03
        BYTE   W06
        BYTE                   As2
        BYTE   W03
        BYTE   PEND
// 006   ----------------------------------------
FE4Title_5_6:
        BYTE   W03
        BYTE           N15     Gs2   v127
        BYTE   W24
        BYTE                   Fn2
        BYTE   W24
        BYTE           N07     As2
        BYTE   W36
        BYTE           N03
        BYTE   W06
        BYTE                   As2
        BYTE   W03
        BYTE   PEND
// 007   ----------------------------------------
FE4Title_5_7:
        BYTE   W03
        BYTE           N07     As2   v127
        BYTE   W12
        BYTE                   As2
        BYTE   W24
        BYTE                   As2
        BYTE   W12
        BYTE                   Ds3
        BYTE   W36
        BYTE           N03
        BYTE   W06
        BYTE                   Ds3
        BYTE   W03
        BYTE   PEND
// 008   ----------------------------------------
FE4Title_5_8:
        BYTE   W03
        BYTE           N07     Ds3   v127
        BYTE   W12
        BYTE                   Ds3
        BYTE   W24
        BYTE                   Ds3
        BYTE   W12
        BYTE                   Bn2
        BYTE   W36
        BYTE           N03
        BYTE   W06
        BYTE                   Bn2
        BYTE   W03
        BYTE   PEND
// 009   ----------------------------------------
FE4Title_5_9:
        BYTE   W03
        BYTE           N15     Bn2   v127
        BYTE   W24
        BYTE                   Gs2
        BYTE   W24
        BYTE           N60     As2
        BYTE   W44
        BYTE   W01
        BYTE   PEND
// 010   ----------------------------------------
FE4Title_5_10:
        BYTE   W48
        BYTE   W03
        BYTE           VOICE   74
        BYTE           PAN     c_v+36
        BYTE           VOL     80
        BYTE   W44
        BYTE   W01
        BYTE   PEND
// 011   ----------------------------------------
        BYTE   W96
// 012   ----------------------------------------
FE4Title_5_12:
        BYTE   W48
        BYTE   W03
        BYTE           N06     Ds4   v127
        BYTE   W06
        BYTE                   Fn4
        BYTE   W06
        BYTE                   Ds4
        BYTE   W06
        BYTE                   Fn4
        BYTE   W06
        BYTE                   Ds4
        BYTE   W06
        BYTE                   Fn4
        BYTE   W06
        BYTE                   Ds4
        BYTE   W06
        BYTE                   Fn4
        BYTE   W03
        BYTE   PEND
// 013   ----------------------------------------
FE4Title_5_13:
        BYTE   W03
        BYTE           N06     Ds4   v127
        BYTE   W06
        BYTE                   Fn4
        BYTE   W06
        BYTE                   Ds4
        BYTE   W06
        BYTE                   Fn4
        BYTE   W06
        BYTE                   Ds4
        BYTE   W06
        BYTE                   Fn4
        BYTE   W06
        BYTE                   Fs4
        BYTE   W06
        BYTE                   Gs4
        BYTE   W06
        BYTE           N48     As4
        BYTE   W44
        BYTE   W01
        BYTE   PEND
// 014   ----------------------------------------
FE4Title_5_14:
        BYTE   W03
        BYTE           N36     Gs4   v127
        BYTE   W48
        BYTE           PAN     c_v-29
        BYTE           VOL     96
        BYTE           VOICE   49
        BYTE           N72     Fs4
        BYTE   W44
        BYTE   W01
        BYTE   PEND
// 015   ----------------------------------------
FE4Title_5_15:
        BYTE   W24
        BYTE   W03
        BYTE           N24     Fs4   v127
        BYTE   W24
        BYTE           N48     Gs4
        BYTE   W44
        BYTE   W01
        BYTE   PEND
// 016   ----------------------------------------
FE4Title_5_16:
        BYTE   W03
        BYTE           N24     Gs4   v127
        BYTE   W24
        BYTE                   Fs4
        BYTE   W24
        BYTE           N60     Ds4
        BYTE   W44
        BYTE   W01
        BYTE   PEND
// 017   ----------------------------------------
FE4Title_5_17:
        BYTE   W15
        BYTE           N07     Fs4   v127
        BYTE   W12
        BYTE                   Fs4
        BYTE   W12
        BYTE                   Cs4
        BYTE   W12
        BYTE           N84
        BYTE   W44
        BYTE   W01
        BYTE   PEND
// 018   ----------------------------------------
FE4Title_5_18:
        BYTE   W48
        BYTE   W03
        BYTE           VOICE   48
        BYTE           VOL     112
        BYTE   W44
        BYTE   W01
        BYTE   PEND
// 019   ----------------------------------------
        BYTE   W96
// 020   ----------------------------------------
        BYTE   W96
// 021   ----------------------------------------
        BYTE   W96
// 022   ----------------------------------------
FE4Title_5_22:
        BYTE   W48
        BYTE   W03
        BYTE           N24     Ds3   v127
        BYTE   W24
        BYTE           N36     Bn3
        BYTE   W21
        BYTE   PEND
// 023   ----------------------------------------
FE4Title_5_23:
        BYTE   W15
        BYTE           N12     Gs3   v127
        BYTE   W12
        BYTE                   Fs3
        BYTE   W12
        BYTE                   Fn3
        BYTE   W12
        BYTE           N36     Cs4
        BYTE   W36
        BYTE           N12     As3
        BYTE   W09
        BYTE   PEND
// 024   ----------------------------------------
FE4Title_5_24:
        BYTE   W03
        BYTE           N21     Fs4   v127
        BYTE   W24
        BYTE           N12
        BYTE   W12
        BYTE                   Fn4
        BYTE   W12
        BYTE           N24     Ds4
        BYTE   W24
        BYTE           N36
        BYTE   W21
        BYTE   PEND
// 025   ----------------------------------------
FE4Title_5_25:
        BYTE   W15
        BYTE           N12     Fn4   v127
        BYTE   W12
        BYTE                   Fs4
        BYTE   W12
        BYTE                   Gs4
        BYTE   W12
        BYTE           N48     Fs4
        BYTE   W44
        BYTE   W01
        BYTE   PEND
// 026   ----------------------------------------
        BYTE   W03
        BYTE                   Fn4
        BYTE   W48
        BYTE           VOICE   60
        BYTE           N07     Fs2
        BYTE           VOL     88
        BYTE           PAN     c_v+46
        BYTE   GoTo
         POIN2  FE4Title_5_LOOP
        BYTE   W36
        BYTE           N03
        BYTE   W06
        BYTE                   Fs2
        BYTE   W03
// 027   ----------------------------------------
        BYTE   PATT
         POIN2  FE4Title_5_3
// 028   ----------------------------------------
        BYTE   PATT
         POIN2  FE4Title_5_4
// 029   ----------------------------------------
        BYTE   PATT
         POIN2  FE4Title_5_5
// 030   ----------------------------------------
        BYTE   PATT
         POIN2  FE4Title_5_6
// 031   ----------------------------------------
        BYTE   PATT
         POIN2  FE4Title_5_7
// 032   ----------------------------------------
        BYTE   PATT
         POIN2  FE4Title_5_8
// 033   ----------------------------------------
        BYTE   PATT
         POIN2  FE4Title_5_9
// 034   ----------------------------------------
        BYTE   PATT
         POIN2  FE4Title_5_10
// 035   ----------------------------------------
        BYTE   W96
// 036   ----------------------------------------
        BYTE   PATT
         POIN2  FE4Title_5_12
// 037   ----------------------------------------
        BYTE   PATT
         POIN2  FE4Title_5_13
// 038   ----------------------------------------
        BYTE   PATT
         POIN2  FE4Title_5_14
// 039   ----------------------------------------
        BYTE   PATT
         POIN2  FE4Title_5_15
// 040   ----------------------------------------
        BYTE   PATT
         POIN2  FE4Title_5_16
// 041   ----------------------------------------
        BYTE   PATT
         POIN2  FE4Title_5_17
// 042   ----------------------------------------
        BYTE   PATT
         POIN2  FE4Title_5_18
// 043   ----------------------------------------
        BYTE   W96
// 044   ----------------------------------------
        BYTE   W96
// 045   ----------------------------------------
        BYTE   W96
// 046   ----------------------------------------
        BYTE   PATT
         POIN2  FE4Title_5_22
// 047   ----------------------------------------
        BYTE   PATT
         POIN2  FE4Title_5_23
// 048   ----------------------------------------
        BYTE   PATT
         POIN2  FE4Title_5_24
// 049   ----------------------------------------
        BYTE   PATT
         POIN2  FE4Title_5_25
// 050   ----------------------------------------
        BYTE   W03
        BYTE           N48     Fn4   v127
        BYTE   W48
        BYTE           PAN     c_v+46
        BYTE           VOL     88
        BYTE           VOICE   60
        BYTE           N07     Fs2
        BYTE   W36
        BYTE           N03
        BYTE   W06
        BYTE                   Fs2
        BYTE   W03
// 051   ----------------------------------------
        BYTE   PATT
         POIN2  FE4Title_5_3
// 052   ----------------------------------------
        BYTE   PATT
         POIN2  FE4Title_5_4
// 053   ----------------------------------------
        BYTE   PATT
         POIN2  FE4Title_5_5
// 054   ----------------------------------------
        BYTE   PATT
         POIN2  FE4Title_5_6
// 055   ----------------------------------------
        BYTE   PATT
         POIN2  FE4Title_5_7
// 056   ----------------------------------------
        BYTE   PATT
         POIN2  FE4Title_5_8
// 057   ----------------------------------------
        BYTE   PATT
         POIN2  FE4Title_5_9
// 058   ----------------------------------------
        BYTE   PATT
         POIN2  FE4Title_5_10
// 059   ----------------------------------------
        BYTE   W96
// 060   ----------------------------------------
        BYTE   PATT
         POIN2  FE4Title_5_12
// 061   ----------------------------------------
        BYTE   PATT
         POIN2  FE4Title_5_13
// 062   ----------------------------------------
        BYTE   PATT
         POIN2  FE4Title_5_14
// 063   ----------------------------------------
        BYTE   PATT
         POIN2  FE4Title_5_15
// 064   ----------------------------------------
        BYTE   PATT
         POIN2  FE4Title_5_16
// 065   ----------------------------------------
        BYTE   PATT
         POIN2  FE4Title_5_17
// 066   ----------------------------------------
        BYTE   W48
        BYTE   W03
        BYTE           VOICE   56
        BYTE           PAN     c_v-49
        BYTE   W44
        BYTE   W01
// 067   ----------------------------------------
        BYTE   W72
        BYTE   W03
        BYTE           N21     Fn3   v127
        BYTE   W21
// 068   ----------------------------------------
        BYTE   W03
        BYTE                   Gs3
        BYTE   W24
        BYTE                   Cs4
        BYTE   W24
        BYTE           N60     Fn4   v127   gtp3
        BYTE   W44
        BYTE   W01
// 069   ----------------------------------------
        BYTE   W24
        BYTE   W03
        BYTE           N07
        BYTE   W08
        BYTE                   Fs4
        BYTE   W08
        BYTE                   Fn4
        BYTE   W08
        BYTE           N21     Cs4
        BYTE   W24
        BYTE                   Fs3
        BYTE   W21
// 070   ----------------------------------------
        BYTE   W03
        BYTE                   Gs3
        BYTE   W24
        BYTE                   Cs4
        BYTE   W24
        BYTE           N60     Fs4   v127   gtp3
        BYTE   W44
        BYTE   W01
// 071   ----------------------------------------
        BYTE   W24
        BYTE   W03
        BYTE           N07
        BYTE   W08
        BYTE                   Fn4
        BYTE   W08
        BYTE                   Ds4
        BYTE   W08
        BYTE           N30     Fn4
        BYTE   W44
        BYTE   W01
// 072   ----------------------------------------
        BYTE   W03
        BYTE                   Cs4
        BYTE   W48
        BYTE           PAN     c_v+56
        BYTE           VOICE   64
        BYTE           N21     Ds3
        BYTE   W24
        BYTE           N07
        BYTE   W08
        BYTE                   Ds3
        BYTE   W08
        BYTE                   Ds3
        BYTE   W05
// 073   ----------------------------------------
        BYTE   PATT
         POIN2  FE4Title_4_73
// 074   ----------------------------------------
        BYTE   PATT
         POIN2  FE4Title_4_74
// 075   ----------------------------------------
        BYTE   PATT
         POIN2  FE4Title_4_75
// 076   ----------------------------------------
        BYTE   PATT
         POIN2  FE4Title_4_76
// 077   ----------------------------------------
        BYTE   PATT
         POIN2  FE4Title_4_77
// 078   ----------------------------------------
        BYTE   PATT
         POIN2  FE4Title_4_78
// 079   ----------------------------------------
        BYTE   PATT
         POIN2  FE4Title_4_79
// 080   ----------------------------------------
        BYTE   PATT
         POIN2  FE4Title_4_80
// 081   ----------------------------------------
        BYTE   W48
        BYTE   W03
        BYTE           MOD     0
        BYTE           N24     Gs2   v127
        BYTE   W20
        BYTE           MOD     50
        BYTE   W24
        BYTE   W01
// 082   ----------------------------------------
        BYTE   W48
        BYTE   W03
        BYTE   FINE

//****************** Track 6 (Midi-Chn.6) ******************//

FE4Title_6:
        BYTE   KEYSH   FE4Title_key+0
// 000   ----------------------------------------
        BYTE   W02
        BYTE           BENDR   12
        BYTE           VOL     64
        BYTE   W48
        BYTE   W01
        BYTE           VOICE   47
        BYTE           PAN     c_v+21
        BYTE           VOL     88
        BYTE   W44
        BYTE   W01
// 001   ----------------------------------------
        BYTE   W48
        BYTE   W03
        BYTE           N12     Fs1   v127
        BYTE   W12
        BYTE                   Cs1
        BYTE   W12
        BYTE                   Fs1
        BYTE   W12
        BYTE                   Cs1
        BYTE   W09
// 002   ----------------------------------------
        BYTE   W03
        BYTE                   Fs1
        BYTE   W12
        BYTE                   Cs1
        BYTE   W12
        BYTE                   Fs1
        BYTE   W12
        BYTE                   Cs1
        BYTE   W12
FE4Title_6_LOOP:
        BYTE           VOL     104
        BYTE           N36     Fs1   v127
        BYTE   W36
        BYTE           N06     Fs1   v107
        BYTE   W06
        BYTE                   Fs1   v117
        BYTE   W03
// 003   ----------------------------------------
FE4Title_6_3:
        BYTE   W03
        BYTE           N36     Fs1   v127
        BYTE   W36
        BYTE           N06     Fs1   v107
        BYTE   W06
        BYTE                   Fs1   v117
        BYTE   W06
        BYTE           N36     Bn1   v127
        BYTE   W36
        BYTE           N06     Bn1   v107
        BYTE   W06
        BYTE                   Bn1   v117
        BYTE   W03
        BYTE   PEND
// 004   ----------------------------------------
FE4Title_6_4:
        BYTE   W03
        BYTE           N24     Bn1   v127
        BYTE   W24
        BYTE           N12     As1
        BYTE   W12
        BYTE           N06     As1   v107
        BYTE   W06
        BYTE                   As1
        BYTE   W06
        BYTE           N36     Gs1   v127
        BYTE   W36
        BYTE           N06     Gs1   v107
        BYTE   W06
        BYTE                   Gs1   v117
        BYTE   W03
        BYTE   PEND
// 005   ----------------------------------------
FE4Title_6_5:
        BYTE   W03
        BYTE           N12     Gs1   v127
        BYTE   W12
        BYTE                   Gs1
        BYTE   W12
        BYTE                   Ds1
        BYTE   W12
        BYTE                   Ds1
        BYTE   W12
        BYTE           N36     Cs2
        BYTE   W36
        BYTE           N06     Cs2   v107
        BYTE   W06
        BYTE                   Cs2   v117
        BYTE   W03
        BYTE   PEND
// 006   ----------------------------------------
FE4Title_6_6:
        BYTE   W03
        BYTE           N12     Cs2   v127
        BYTE   W12
        BYTE                   Gs1
        BYTE   W12
        BYTE                   Cs2
        BYTE   W12
        BYTE                   Gs1
        BYTE   W12
        BYTE           N36     Fs1
        BYTE   W36
        BYTE           N06     Fs1   v107
        BYTE   W06
        BYTE                   Fs1   v117
        BYTE   W03
        BYTE   PEND
// 007   ----------------------------------------
FE4Title_6_7:
        BYTE   W03
        BYTE           N12     Fs1   v127
        BYTE   W12
        BYTE           N06     Fs1   v107
        BYTE   W06
        BYTE                   Fs1   v117
        BYTE   W06
        BYTE           N12
        BYTE   W12
        BYTE           N06     Fs1   v097
        BYTE   W06
        BYTE                   Fs1   v107
        BYTE   W06
        BYTE           N36     Bn1
        BYTE   W36
        BYTE           N06     Bn1   v087
        BYTE   W06
        BYTE                   Bn1   v097
        BYTE   W03
        BYTE   PEND
// 008   ----------------------------------------
FE4Title_6_8:
        BYTE   W03
        BYTE           N36     Bn1   v127
        BYTE   W36
        BYTE           N06     Bn1   v107
        BYTE   W06
        BYTE                   Bn1   v117
        BYTE   W06
        BYTE           N36     Gs1   v127
        BYTE   W36
        BYTE           N06     Gs1   v107
        BYTE   W06
        BYTE                   Gs1   v117
        BYTE   W03
        BYTE   PEND
// 009   ----------------------------------------
FE4Title_6_9:
        BYTE   W03
        BYTE           N36     Cs2   v127
        BYTE   W36
        BYTE           N06     Cs2   v117
        BYTE   W06
        BYTE                   Cs2   v127
        BYTE   W06
        BYTE           N36     Fs2
        BYTE   W36
        BYTE           N06     Fs2   v107
        BYTE   W06
        BYTE                   Fs2   v117
        BYTE   W03
        BYTE   PEND
// 010   ----------------------------------------
FE4Title_6_10:
        BYTE   W03
        BYTE           N12     Fs2   v127
        BYTE   W12
        BYTE                   Cs2
        BYTE   W12
        BYTE                   Fn2
        BYTE   W12
        BYTE                   Cs2
        BYTE   W12
        BYTE           N96     Fs2
        BYTE   W44
        BYTE   W01
        BYTE   PEND
// 011   ----------------------------------------
        BYTE   W96
// 012   ----------------------------------------
        BYTE   W96
// 013   ----------------------------------------
        BYTE   W96
// 014   ----------------------------------------
        BYTE   W96
// 015   ----------------------------------------
        BYTE   W96
// 016   ----------------------------------------
        BYTE   W96
// 017   ----------------------------------------
        BYTE   W96
// 018   ----------------------------------------
        BYTE   W96
// 019   ----------------------------------------
        BYTE   W96
// 020   ----------------------------------------
        BYTE   W96
// 021   ----------------------------------------
        BYTE   W96
// 022   ----------------------------------------
        BYTE   W96
// 023   ----------------------------------------
        BYTE   W96
// 024   ----------------------------------------
        BYTE   W96
// 025   ----------------------------------------
FE4Title_6_25:
        BYTE   W48
        BYTE   W03
        BYTE           N12     Cs2   v127
        BYTE   W12
        BYTE                   Gs1
        BYTE   W12
        BYTE           N06     Cs2
        BYTE   W06
        BYTE                   Cs2
        BYTE   W06
        BYTE           N12     Gs1
        BYTE   W09
        BYTE   PEND
// 026   ----------------------------------------
        BYTE   W03
        BYTE                   Cs2
        BYTE   W12
        BYTE                   Gs1
        BYTE   W12
        BYTE           N06     Cs2
        BYTE   W06
        BYTE                   Cs2
        BYTE   W06
        BYTE           N12     Gs1
        BYTE   W12
        BYTE           N36     Fs1
        BYTE   GoTo
         POIN2  FE4Title_6_LOOP
        BYTE   W36
        BYTE           N06     Fs1   v107
        BYTE   W06
        BYTE                   Fs1   v117
        BYTE   W03
// 027   ----------------------------------------
        BYTE   PATT
         POIN2  FE4Title_6_3
// 028   ----------------------------------------
        BYTE   PATT
         POIN2  FE4Title_6_4
// 029   ----------------------------------------
        BYTE   PATT
         POIN2  FE4Title_6_5
// 030   ----------------------------------------
        BYTE   PATT
         POIN2  FE4Title_6_6
// 031   ----------------------------------------
        BYTE   PATT
         POIN2  FE4Title_6_7
// 032   ----------------------------------------
        BYTE   PATT
         POIN2  FE4Title_6_8
// 033   ----------------------------------------
        BYTE   PATT
         POIN2  FE4Title_6_9
// 034   ----------------------------------------
        BYTE   PATT
         POIN2  FE4Title_6_10
// 035   ----------------------------------------
        BYTE   W96
// 036   ----------------------------------------
        BYTE   W96
// 037   ----------------------------------------
        BYTE   W96
// 038   ----------------------------------------
        BYTE   W96
// 039   ----------------------------------------
        BYTE   W96
// 040   ----------------------------------------
        BYTE   W96
// 041   ----------------------------------------
        BYTE   W96
// 042   ----------------------------------------
        BYTE   W96
// 043   ----------------------------------------
        BYTE   W96
// 044   ----------------------------------------
        BYTE   W96
// 045   ----------------------------------------
        BYTE   W96
// 046   ----------------------------------------
        BYTE   W96
// 047   ----------------------------------------
        BYTE   W96
// 048   ----------------------------------------
        BYTE   W96
// 049   ----------------------------------------
        BYTE   PATT
         POIN2  FE4Title_6_25
// 050   ----------------------------------------
        BYTE   W03
        BYTE           N12     Cs2   v127
        BYTE   W12
        BYTE                   Gs1
        BYTE   W12
        BYTE           N06     Cs2
        BYTE   W06
        BYTE                   Cs2
        BYTE   W06
        BYTE           N12     Gs1
        BYTE   W12
        BYTE           N36     Fs1
        BYTE   W36
        BYTE           N06     Fs1   v107
        BYTE   W06
        BYTE                   Fs1   v117
        BYTE   W03
// 051   ----------------------------------------
        BYTE   PATT
         POIN2  FE4Title_6_3
// 052   ----------------------------------------
        BYTE   PATT
         POIN2  FE4Title_6_4
// 053   ----------------------------------------
        BYTE   PATT
         POIN2  FE4Title_6_5
// 054   ----------------------------------------
        BYTE   PATT
         POIN2  FE4Title_6_6
// 055   ----------------------------------------
        BYTE   PATT
         POIN2  FE4Title_6_7
// 056   ----------------------------------------
        BYTE   PATT
         POIN2  FE4Title_6_8
// 057   ----------------------------------------
        BYTE   PATT
         POIN2  FE4Title_6_9
// 058   ----------------------------------------
        BYTE   PATT
         POIN2  FE4Title_6_10
// 059   ----------------------------------------
        BYTE   W96
// 060   ----------------------------------------
        BYTE   W96
// 061   ----------------------------------------
        BYTE   W96
// 062   ----------------------------------------
        BYTE   W96
// 063   ----------------------------------------
        BYTE   W96
// 064   ----------------------------------------
        BYTE   W96
// 065   ----------------------------------------
        BYTE   W96
// 066   ----------------------------------------
        BYTE   W24
        BYTE   W03
        BYTE           N04     Fs1   v097
        BYTE   W04
        BYTE                   Fs1
        BYTE   W04
        BYTE                   Fs1   v117
        BYTE   W04
        BYTE                   Fs1
        BYTE   W04
        BYTE                   Fs1   v127
        BYTE   W04
        BYTE                   Fs1
        BYTE   W04
        BYTE           N96     Gs1
        BYTE   W44
        BYTE   W01
// 067   ----------------------------------------
        BYTE   W96
// 068   ----------------------------------------
        BYTE   W24
        BYTE   W03
        BYTE           N04     Gs1   v097
        BYTE   W04
        BYTE                   Gs1
        BYTE   W04
        BYTE                   Gs1   v117
        BYTE   W04
        BYTE                   Gs1
        BYTE   W04
        BYTE                   Gs1   v127
        BYTE   W04
        BYTE                   Gs1
        BYTE   W04
        BYTE           N96
        BYTE   W44
        BYTE   W01
// 069   ----------------------------------------
        BYTE   W96
// 070   ----------------------------------------
FE4Title_6_70:
        BYTE   W24
        BYTE   W03
        BYTE           N04     Gs1   v097
        BYTE   W04
        BYTE                   Gs1
        BYTE   W04
        BYTE                   Gs1   v117
        BYTE   W04
        BYTE                   Gs1
        BYTE   W04
        BYTE                   Gs1   v127
        BYTE   W04
        BYTE                   Gs1
        BYTE   W04
        BYTE           N72
        BYTE   W44
        BYTE   W01
        BYTE   PEND
// 071   ----------------------------------------
        BYTE   PATT
         POIN2  FE4Title_6_70
// 072   ----------------------------------------
        BYTE   W24
        BYTE   W03
        BYTE           PAN     c_v-44
        BYTE           N24     Fn0   v127
        BYTE   W24
        BYTE           PAN     c_v+21
        BYTE           N24     Fn1
        BYTE   W24
        BYTE           PAN     c_v-44
        BYTE           N24     Fn0
        BYTE   W21
// 073   ----------------------------------------
FE4Title_6_73:
        BYTE   W03
        BYTE           PAN     c_v+21
        BYTE           N24     Fn1   v127
        BYTE   W24
        BYTE           PAN     c_v-44
        BYTE           N24     Fn0
        BYTE   W24
        BYTE           PAN     c_v+21
        BYTE           N24     Fn1
        BYTE   W24
        BYTE           PAN     c_v-44
        BYTE           N24     Fn0
        BYTE   W21
        BYTE   PEND
// 074   ----------------------------------------
        BYTE   PATT
         POIN2  FE4Title_6_73
// 075   ----------------------------------------
        BYTE   PATT
         POIN2  FE4Title_6_73
// 076   ----------------------------------------
        BYTE   W03
        BYTE           PAN     c_v+21
        BYTE           N24     Fn1   v127
        BYTE   W24
        BYTE           PAN     c_v-44
        BYTE           N24     Fn0
        BYTE   W24
        BYTE           PAN     c_v-14
        BYTE           N36     Cs2
        BYTE   W36
        BYTE           N48
        BYTE   W09
// 077   ----------------------------------------
        BYTE   W36
        BYTE   W03
        BYTE           PAN     c_v-44
        BYTE           N12     Cs1
        BYTE   W12
        BYTE           PAN     c_v-14
        BYTE           N36     Bn1
        BYTE   W36
        BYTE           N24
        BYTE   W09
// 078   ----------------------------------------
        BYTE   W15
        BYTE           PAN     c_v-44
        BYTE           N12     Bn0
        BYTE   W12
        BYTE           PAN     c_v-14
        BYTE           N12     Bn1
        BYTE   W12
        BYTE           PAN     c_v-44
        BYTE           N12     Bn0
        BYTE   W12
        BYTE           PAN     c_v-14
        BYTE           N36     Cs2
        BYTE   W36
        BYTE           N24
        BYTE   W09
// 079   ----------------------------------------
        BYTE   W15
        BYTE           PAN     c_v-44
        BYTE           N12     Cs1
        BYTE   W12
        BYTE           PAN     c_v-14
        BYTE           N12     Cs2
        BYTE   W12
        BYTE           PAN     c_v-44
        BYTE           N12     Cs1
        BYTE   W12
        BYTE           PAN     c_v-14
        BYTE           N36     Bn1
        BYTE   W36
        BYTE           N24
        BYTE   W09
// 080   ----------------------------------------
        BYTE   W15
        BYTE           N12
        BYTE   W12
        BYTE           PAN     c_v-44
        BYTE           N12     Bn0
        BYTE   W12
        BYTE           PAN     c_v-14
        BYTE           N12     Bn1
        BYTE   W12
        BYTE           PAN     c_v+6
        BYTE           N84     Cs2
        BYTE   W44
        BYTE   W01
// 081   ----------------------------------------
        BYTE   W36
        BYTE   W03
        BYTE           N06
        BYTE   W06
        BYTE                   Cs2
        BYTE   W06
        BYTE           PAN     c_v+11
        BYTE           VOL     112
        BYTE           VOICE   55
        BYTE           N96
        BYTE   W44
        BYTE   W01
// 082   ----------------------------------------
        BYTE   W48
        BYTE   W03
        BYTE   FINE

//****************** Track 7 (Midi-Chn.7) ******************//

FE4Title_7:
        BYTE   KEYSH   FE4Title_key+0
// 000   ----------------------------------------
        BYTE   PATT
         POIN2  FE4Title_1_0
// 001   ----------------------------------------
        BYTE   W96
// 002   ----------------------------------------
        BYTE   W48
        BYTE   W03
FE4Title_7_LOOP:
        BYTE           VOICE   63
        BYTE           PAN     c_v+46
        BYTE           VOL     104
        BYTE   W44
        BYTE   W01
// 003   ----------------------------------------
        BYTE   W96
// 004   ----------------------------------------
FE4Title_7_4:
        BYTE   W36
        BYTE   W03
        BYTE           N04     Ds3   v127
        BYTE   W06
        BYTE                   Ds3
        BYTE   W06
        BYTE           N44     Ds3   v127   gtp1
        BYTE   W44
        BYTE   W01
        BYTE   PEND
// 005   ----------------------------------------
FE4Title_7_5:
        BYTE   W15
        BYTE           N04     Ds3   v127
        BYTE   W06
        BYTE                   Ds3
        BYTE   W06
        BYTE                   Ds3
        BYTE   W12
        BYTE                   Ds3
        BYTE   W12
        BYTE           N24     Fs3   v127   gtp3
        BYTE   W36
        BYTE           N04
        BYTE   W06
        BYTE                   Fs3
        BYTE   W03
        BYTE   PEND
// 006   ----------------------------------------
FE4Title_7_6:
        BYTE   W03
        BYTE           N09     Fn3   v127
        BYTE   W12
        BYTE                   Fn3
        BYTE   W12
        BYTE                   Fn3
        BYTE   W12
        BYTE                   Fn3
        BYTE   W12
        BYTE           N36     Fs3
        BYTE   W44
        BYTE   W01
        BYTE   PEND
// 007   ----------------------------------------
FE4Title_7_7:
        BYTE   W03
        BYTE           N09     Fs3   v127
        BYTE   W24
        BYTE           N18
        BYTE   W24
        BYTE           N24     Gs3   v127   gtp3
        BYTE   W36
        BYTE           N04
        BYTE   W06
        BYTE                   Gs3
        BYTE   W03
        BYTE   PEND
// 008   ----------------------------------------
FE4Title_7_8:
        BYTE   W03
        BYTE           N09     Ds3   v127
        BYTE   W24
        BYTE           N18
        BYTE   W24
        BYTE           N36
        BYTE   W44
        BYTE   W01
        BYTE   PEND
// 009   ----------------------------------------
FE4Title_7_9:
        BYTE   W03
        BYTE           N36     Cs3   v127
        BYTE   W48
        BYTE           N60     Fs3   v127   gtp3
        BYTE   W44
        BYTE   W01
        BYTE   PEND
// 010   ----------------------------------------
FE4Title_7_10:
        BYTE   W48
        BYTE   W03
        BYTE           VOICE   48
        BYTE           VOL     96
        BYTE   W44
        BYTE   W01
        BYTE   PEND
// 011   ----------------------------------------
        BYTE   W96
// 012   ----------------------------------------
FE4Title_7_12:
        BYTE   W24
        BYTE   W03
        BYTE           N10     Ds3   v127
        BYTE   W12
        BYTE                   Ds3
        BYTE   W12
        BYTE           N42     Gs2
        BYTE   W44
        BYTE   W01
        BYTE   PEND
// 013   ----------------------------------------
FE4Title_7_13:
        BYTE   W03
        BYTE           N42     Gs3   v127
        BYTE   W48
        BYTE           N21     Cs3
        BYTE   W24
        BYTE                   As2
        BYTE   W21
        BYTE   PEND
// 014   ----------------------------------------
FE4Title_7_14:
        BYTE   W03
        BYTE           N21     Cs3   v127
        BYTE   W24
        BYTE                   Gs3
        BYTE   W24
        BYTE           N60     Fs3   v127   gtp3
        BYTE   W44
        BYTE   W01
        BYTE   PEND
// 015   ----------------------------------------
FE4Title_7_15:
        BYTE   W24
        BYTE   W03
        BYTE           N21     Fs3   v127
        BYTE   W24
        BYTE           N42     Gs3
        BYTE   W44
        BYTE   W01
        BYTE   PEND
// 016   ----------------------------------------
FE4Title_7_16:
        BYTE   W03
        BYTE           N21     Fs3   v127
        BYTE   W24
        BYTE                   Fn3
        BYTE   W24
        BYTE           VOL     104
        BYTE           VOICE   63
        BYTE           N24     Gs3   v127   gtp3
        BYTE   W36
        BYTE           N04
        BYTE   W06
        BYTE                   Gs3
        BYTE   W03
        BYTE   PEND
// 017   ----------------------------------------
FE4Title_7_17:
        BYTE   W03
        BYTE           N09     Gs3   v127
        BYTE   W12
        BYTE                   Fs3
        BYTE   W12
        BYTE                   Fs3
        BYTE   W12
        BYTE                   Fn3
        BYTE   W12
        BYTE           N60     Fs3   v127   gtp3
        BYTE   W44
        BYTE   W01
        BYTE   PEND
// 018   ----------------------------------------
        BYTE   W48
        BYTE   W03
        BYTE           VOICE   60
        BYTE   W44
        BYTE   W01
// 019   ----------------------------------------
        BYTE   W96
// 020   ----------------------------------------
        BYTE   W96
// 021   ----------------------------------------
        BYTE   W96
// 022   ----------------------------------------
FE4Title_7_22:
        BYTE   W48
        BYTE   W03
        BYTE           N21     Ds2   v127
        BYTE   W24
        BYTE           N30     Bn2   v127   gtp1
        BYTE   W21
        BYTE   PEND
// 023   ----------------------------------------
FE4Title_7_23:
        BYTE   W15
        BYTE           N10     Gs2   v127
        BYTE   W12
        BYTE                   Fs2
        BYTE   W12
        BYTE                   Fn2
        BYTE   W12
        BYTE           N30     Cs3   v127   gtp1
        BYTE   W36
        BYTE           N10     As2
        BYTE   W09
        BYTE   PEND
// 024   ----------------------------------------
FE4Title_7_24:
        BYTE   W03
        BYTE           N10     Fs3   v127
        BYTE   W24
        BYTE                   Fs3
        BYTE   W12
        BYTE                   Fn3
        BYTE   W12
        BYTE           N30     Ds3   v127   gtp1
        BYTE   W36
        BYTE           N05
        BYTE   W06
        BYTE                   Ds3
        BYTE   W03
        BYTE   PEND
// 025   ----------------------------------------
FE4Title_7_25:
        BYTE   W03
        BYTE           N10     Ds3   v127
        BYTE   W12
        BYTE                   Ds3
        BYTE   W12
        BYTE                   Ds3
        BYTE   W12
        BYTE                   Ds3
        BYTE   W12
        BYTE           N42     Fs3
        BYTE   W44
        BYTE   W01
        BYTE   PEND
// 026   ----------------------------------------
        BYTE   W03
        BYTE                   Fn3
        BYTE   W48
        BYTE           VOICE   63
        BYTE   GoTo
         POIN2  FE4Title_7_LOOP
        BYTE   W44
        BYTE   W01
// 027   ----------------------------------------
        BYTE   W96
// 028   ----------------------------------------
        BYTE   PATT
         POIN2  FE4Title_7_4
// 029   ----------------------------------------
        BYTE   PATT
         POIN2  FE4Title_7_5
// 030   ----------------------------------------
        BYTE   PATT
         POIN2  FE4Title_7_6
// 031   ----------------------------------------
        BYTE   PATT
         POIN2  FE4Title_7_7
// 032   ----------------------------------------
        BYTE   PATT
         POIN2  FE4Title_7_8
// 033   ----------------------------------------
        BYTE   PATT
         POIN2  FE4Title_7_9
// 034   ----------------------------------------
        BYTE   PATT
         POIN2  FE4Title_7_10
// 035   ----------------------------------------
        BYTE   W96
// 036   ----------------------------------------
        BYTE   PATT
         POIN2  FE4Title_7_12
// 037   ----------------------------------------
        BYTE   PATT
         POIN2  FE4Title_7_13
// 038   ----------------------------------------
        BYTE   PATT
         POIN2  FE4Title_7_14
// 039   ----------------------------------------
        BYTE   PATT
         POIN2  FE4Title_7_15
// 040   ----------------------------------------
        BYTE   PATT
         POIN2  FE4Title_7_16
// 041   ----------------------------------------
        BYTE   PATT
         POIN2  FE4Title_7_17
// 042   ----------------------------------------
        BYTE   W48
        BYTE   W03
        BYTE           VOICE   60
        BYTE   W44
        BYTE   W01
// 043   ----------------------------------------
        BYTE   W96
// 044   ----------------------------------------
        BYTE   W96
// 045   ----------------------------------------
        BYTE   W96
// 046   ----------------------------------------
        BYTE   PATT
         POIN2  FE4Title_7_22
// 047   ----------------------------------------
        BYTE   PATT
         POIN2  FE4Title_7_23
// 048   ----------------------------------------
        BYTE   PATT
         POIN2  FE4Title_7_24
// 049   ----------------------------------------
        BYTE   PATT
         POIN2  FE4Title_7_25
// 050   ----------------------------------------
        BYTE   W03
        BYTE           N42     Fn3   v127
        BYTE   W48
        BYTE           VOICE   63
        BYTE   W44
        BYTE   W01
// 051   ----------------------------------------
        BYTE   W96
// 052   ----------------------------------------
        BYTE   PATT
         POIN2  FE4Title_7_4
// 053   ----------------------------------------
        BYTE   PATT
         POIN2  FE4Title_7_5
// 054   ----------------------------------------
        BYTE   PATT
         POIN2  FE4Title_7_6
// 055   ----------------------------------------
        BYTE   PATT
         POIN2  FE4Title_7_7
// 056   ----------------------------------------
        BYTE   PATT
         POIN2  FE4Title_7_8
// 057   ----------------------------------------
        BYTE   PATT
         POIN2  FE4Title_7_9
// 058   ----------------------------------------
        BYTE   PATT
         POIN2  FE4Title_7_10
// 059   ----------------------------------------
        BYTE   W96
// 060   ----------------------------------------
        BYTE   PATT
         POIN2  FE4Title_7_12
// 061   ----------------------------------------
        BYTE   PATT
         POIN2  FE4Title_7_13
// 062   ----------------------------------------
        BYTE   PATT
         POIN2  FE4Title_7_14
// 063   ----------------------------------------
        BYTE   PATT
         POIN2  FE4Title_7_15
// 064   ----------------------------------------
        BYTE   PATT
         POIN2  FE4Title_7_16
// 065   ----------------------------------------
        BYTE   PATT
         POIN2  FE4Title_7_17
// 066   ----------------------------------------
        BYTE   W48
        BYTE   W03
        BYTE           VOICE   60
        BYTE           VOL     88
        BYTE   W44
        BYTE   W01
// 067   ----------------------------------------
        BYTE   W24
        BYTE   W03
        BYTE           N07     Ds3   v127
        BYTE   W08
        BYTE                   Ds3
        BYTE   W08
        BYTE                   Fs3
        BYTE   W08
        BYTE           N72     Fn3   v127   gtp1
        BYTE   W44
        BYTE   W01
// 068   ----------------------------------------
        BYTE   W96
// 069   ----------------------------------------
        BYTE   W24
        BYTE   W03
        BYTE           N07
        BYTE   W08
        BYTE                   Fs3
        BYTE   W08
        BYTE                   Gs3
        BYTE   W08
        BYTE           N72     Fs3   v127   gtp1
        BYTE   W44
        BYTE   W01
// 070   ----------------------------------------
        BYTE   W96
// 071   ----------------------------------------
        BYTE   W24
        BYTE   W03
        BYTE           N07
        BYTE   W08
        BYTE                   Fs3
        BYTE   W08
        BYTE                   Fs3
        BYTE   W08
        BYTE           N30     Fn3   v127   gtp1
        BYTE   W44
        BYTE   W01
// 072   ----------------------------------------
        BYTE   W03
        BYTE           N42     Gs3
        BYTE   W48
        BYTE           VOICE   73
        BYTE           PAN     c_v+36
        BYTE   W44
        BYTE   W01
// 073   ----------------------------------------
        BYTE   W96
// 074   ----------------------------------------
        BYTE   W48
        BYTE   W03
        BYTE           N21     Ds3
        BYTE   W24
        BYTE           N07
        BYTE   W08
        BYTE                   Ds3
        BYTE   W08
        BYTE                   Ds3
        BYTE   W05
// 075   ----------------------------------------
        BYTE   PATT
         POIN2  FE4Title_4_73
// 076   ----------------------------------------
        BYTE   W03
        BYTE           N21     Gs3   v127
        BYTE   W24
        BYTE                   Ds3
        BYTE   W24
        BYTE           VOICE   48
        BYTE           PAN     c_v+56
        BYTE           VOL     104
        BYTE   W44
        BYTE   W01
// 077   ----------------------------------------
        BYTE   W96
// 078   ----------------------------------------
        BYTE   W96
// 079   ----------------------------------------
        BYTE   W96
// 080   ----------------------------------------
        BYTE   W48
        BYTE   W03
        BYTE           N84     Gs3
        BYTE   W44
        BYTE   W01
// 081   ----------------------------------------
        BYTE   W48
        BYTE   W03
        BYTE           N21     Fn3
        BYTE   W44
        BYTE   W01
// 082   ----------------------------------------
        BYTE   W48
        BYTE   W03
        BYTE   FINE

//****************** Track 8 (Midi-Chn.8) ******************//

FE4Title_8:
        BYTE   KEYSH   FE4Title_key+0
// 000   ----------------------------------------
        BYTE   PATT
         POIN2  FE4Title_1_0
// 001   ----------------------------------------
        BYTE   W96
// 002   ----------------------------------------
        BYTE   W48
        BYTE   W03
FE4Title_8_LOOP:
        BYTE           PAN     c_v+7
        BYTE           VOL     104
        BYTE           VOICE   32
        BYTE           N48     Fs1   v127
        BYTE   W44
        BYTE   W01
// 003   ----------------------------------------
FE4Title_8_3:
        BYTE   W03
        BYTE           N24     Fs1   v127
        BYTE   W24
        BYTE                   Fs1
        BYTE   W24
        BYTE           N36     Gs1
        BYTE   W36
        BYTE           N06
        BYTE   W06
        BYTE                   Gs1
        BYTE   W03
        BYTE   PEND
// 004   ----------------------------------------
FE4Title_8_4:
        BYTE   W03
        BYTE           N24     Gs1   v127
        BYTE   W24
        BYTE                   Ds1
        BYTE   W24
        BYTE           N72     Gs1
        BYTE   W44
        BYTE   W01
        BYTE   PEND
// 005   ----------------------------------------
FE4Title_8_5:
        BYTE   W24
        BYTE   W03
        BYTE           N24     Ds1   v127
        BYTE   W24
        BYTE           N36     Fs1
        BYTE   W36
        BYTE           N06
        BYTE   W06
        BYTE                   Fs1
        BYTE   W03
        BYTE   PEND
// 006   ----------------------------------------
FE4Title_8_6:
        BYTE   W03
        BYTE           N24     Cs1   v127
        BYTE   W24
        BYTE                   Cs1
        BYTE   W24
        BYTE           N48     Fs1
        BYTE   W44
        BYTE   W01
        BYTE   PEND
// 007   ----------------------------------------
        BYTE   PATT
         POIN2  FE4Title_8_3
// 008   ----------------------------------------
FE4Title_8_8:
        BYTE   W03
        BYTE           N24     Gs1   v127
        BYTE   W24
        BYTE                   Ds1
        BYTE   W24
        BYTE           N36     Gs1
        BYTE   W36
        BYTE           N06
        BYTE   W06
        BYTE                   Gs1
        BYTE   W03
        BYTE   PEND
// 009   ----------------------------------------
FE4Title_8_9:
        BYTE   W03
        BYTE           N24     Ds1   v127
        BYTE   W24
        BYTE                   Cs1
        BYTE   W24
        BYTE           N36     Fs1
        BYTE   W36
        BYTE           N06
        BYTE   W06
        BYTE                   Fs1
        BYTE   W03
        BYTE   PEND
// 010   ----------------------------------------
FE4Title_8_10:
        BYTE   W03
        BYTE           N24     Fs1   v127
        BYTE   W24
        BYTE           N12
        BYTE   W12
        BYTE                   Fn1
        BYTE   W12
        BYTE           N48     Fs1
        BYTE   W44
        BYTE   W01
        BYTE   PEND
// 011   ----------------------------------------
        BYTE   PATT
         POIN2  FE4Title_8_3
// 012   ----------------------------------------
        BYTE   PATT
         POIN2  FE4Title_8_4
// 013   ----------------------------------------
        BYTE   PATT
         POIN2  FE4Title_8_5
// 014   ----------------------------------------
        BYTE   PATT
         POIN2  FE4Title_8_6
// 015   ----------------------------------------
        BYTE   PATT
         POIN2  FE4Title_8_3
// 016   ----------------------------------------
        BYTE   PATT
         POIN2  FE4Title_8_8
// 017   ----------------------------------------
        BYTE   PATT
         POIN2  FE4Title_8_9
// 018   ----------------------------------------
FE4Title_8_18:
        BYTE   W03
        BYTE           N24     Fs1   v127
        BYTE   W24
        BYTE           N12
        BYTE   W12
        BYTE                   Fn1
        BYTE   W12
        BYTE           VOL     120
        BYTE           VOICE   48
        BYTE           N48     Ds1
        BYTE   W44
        BYTE   W01
        BYTE   PEND
// 019   ----------------------------------------
FE4Title_8_19:
        BYTE   W03
        BYTE           N48     Gs1   v127
        BYTE   W48
        BYTE                   Fn1
        BYTE   W44
        BYTE   W01
        BYTE   PEND
// 020   ----------------------------------------
FE4Title_8_20:
        BYTE   W03
        BYTE           N24     As1   v127
        BYTE   W24
        BYTE                   Gs1
        BYTE   W24
        BYTE           N48     Fs1
        BYTE   W44
        BYTE   W01
        BYTE   PEND
// 021   ----------------------------------------
FE4Title_8_21:
        BYTE   W03
        BYTE           N48     Gs1   v127
        BYTE   W48
        BYTE           N72     As1
        BYTE   W44
        BYTE   W01
        BYTE   PEND
// 022   ----------------------------------------
FE4Title_8_22:
        BYTE   W24
        BYTE   W03
        BYTE           N24     As1   v127
        BYTE   W24
        BYTE           VOL     104
        BYTE           VOICE   32
        BYTE           N24     Ds1
        BYTE   W24
        BYTE                   Ds1
        BYTE   W21
        BYTE   PEND
// 023   ----------------------------------------
FE4Title_8_23:
        BYTE   W03
        BYTE           N24     Gs1   v127
        BYTE   W24
        BYTE                   Gs1
        BYTE   W24
        BYTE                   Fn1
        BYTE   W24
        BYTE                   Fn1
        BYTE   W21
        BYTE   PEND
// 024   ----------------------------------------
FE4Title_8_24:
        BYTE   W03
        BYTE           N24     Bn1   v127
        BYTE   W24
        BYTE                   As1
        BYTE   W24
        BYTE                   Gs1
        BYTE   W24
        BYTE                   Gs1
        BYTE   W21
        BYTE   PEND
// 025   ----------------------------------------
FE4Title_8_25:
        BYTE   W03
        BYTE           N24     As1   v127
        BYTE   W24
        BYTE                   Cn2
        BYTE   W24
        BYTE           N36     Cs2
        BYTE   W36
        BYTE           N06
        BYTE   W06
        BYTE                   Cs2
        BYTE   W03
        BYTE   PEND
// 026   ----------------------------------------
        BYTE   W03
        BYTE           N12
        BYTE   W12
        BYTE                   Gs1
        BYTE   W12
        BYTE                   Cs2
        BYTE   W12
        BYTE                   Gs1
        BYTE   W12
        BYTE           N48     Fs1
        BYTE   GoTo
         POIN2  FE4Title_8_LOOP
        BYTE   W44
        BYTE   W01
// 027   ----------------------------------------
        BYTE   PATT
         POIN2  FE4Title_8_3
// 028   ----------------------------------------
        BYTE   PATT
         POIN2  FE4Title_8_4
// 029   ----------------------------------------
        BYTE   PATT
         POIN2  FE4Title_8_5
// 030   ----------------------------------------
        BYTE   PATT
         POIN2  FE4Title_8_6
// 031   ----------------------------------------
        BYTE   PATT
         POIN2  FE4Title_8_3
// 032   ----------------------------------------
        BYTE   PATT
         POIN2  FE4Title_8_8
// 033   ----------------------------------------
        BYTE   PATT
         POIN2  FE4Title_8_9
// 034   ----------------------------------------
        BYTE   PATT
         POIN2  FE4Title_8_10
// 035   ----------------------------------------
        BYTE   PATT
         POIN2  FE4Title_8_3
// 036   ----------------------------------------
        BYTE   PATT
         POIN2  FE4Title_8_4
// 037   ----------------------------------------
        BYTE   PATT
         POIN2  FE4Title_8_5
// 038   ----------------------------------------
        BYTE   PATT
         POIN2  FE4Title_8_6
// 039   ----------------------------------------
        BYTE   PATT
         POIN2  FE4Title_8_3
// 040   ----------------------------------------
        BYTE   PATT
         POIN2  FE4Title_8_8
// 041   ----------------------------------------
        BYTE   PATT
         POIN2  FE4Title_8_9
// 042   ----------------------------------------
        BYTE   PATT
         POIN2  FE4Title_8_18
// 043   ----------------------------------------
        BYTE   PATT
         POIN2  FE4Title_8_19
// 044   ----------------------------------------
        BYTE   PATT
         POIN2  FE4Title_8_20
// 045   ----------------------------------------
        BYTE   PATT
         POIN2  FE4Title_8_21
// 046   ----------------------------------------
        BYTE   PATT
         POIN2  FE4Title_8_22
// 047   ----------------------------------------
        BYTE   PATT
         POIN2  FE4Title_8_23
// 048   ----------------------------------------
        BYTE   PATT
         POIN2  FE4Title_8_24
// 049   ----------------------------------------
        BYTE   PATT
         POIN2  FE4Title_8_25
// 050   ----------------------------------------
        BYTE   W03
        BYTE           N12     Cs2   v127
        BYTE   W12
        BYTE                   Gs1
        BYTE   W12
        BYTE                   Cs2
        BYTE   W12
        BYTE                   Gs1
        BYTE   W12
        BYTE           N48     Fs1
        BYTE   W44
        BYTE   W01
// 051   ----------------------------------------
        BYTE   PATT
         POIN2  FE4Title_8_3
// 052   ----------------------------------------
        BYTE   PATT
         POIN2  FE4Title_8_4
// 053   ----------------------------------------
        BYTE   PATT
         POIN2  FE4Title_8_5
// 054   ----------------------------------------
        BYTE   PATT
         POIN2  FE4Title_8_6
// 055   ----------------------------------------
        BYTE   PATT
         POIN2  FE4Title_8_3
// 056   ----------------------------------------
        BYTE   PATT
         POIN2  FE4Title_8_8
// 057   ----------------------------------------
        BYTE   PATT
         POIN2  FE4Title_8_9
// 058   ----------------------------------------
        BYTE   PATT
         POIN2  FE4Title_8_10
// 059   ----------------------------------------
        BYTE   PATT
         POIN2  FE4Title_8_3
// 060   ----------------------------------------
        BYTE   PATT
         POIN2  FE4Title_8_4
// 061   ----------------------------------------
        BYTE   PATT
         POIN2  FE4Title_8_5
// 062   ----------------------------------------
        BYTE   PATT
         POIN2  FE4Title_8_6
// 063   ----------------------------------------
        BYTE   PATT
         POIN2  FE4Title_8_3
// 064   ----------------------------------------
        BYTE   PATT
         POIN2  FE4Title_8_8
// 065   ----------------------------------------
        BYTE   PATT
         POIN2  FE4Title_8_9
// 066   ----------------------------------------
        BYTE   W03
        BYTE           N24     Fs1   v127
        BYTE   W24
        BYTE           N12
        BYTE   W12
        BYTE                   Fn1
        BYTE   W12
        BYTE           N72     Ds1
        BYTE   W44
        BYTE   W01
// 067   ----------------------------------------
        BYTE   W24
        BYTE   W03
        BYTE           N08
        BYTE   W08
        BYTE                   Ds1
        BYTE   W08
        BYTE                   Ds1
        BYTE   W08
        BYTE           N96     Fn1
        BYTE   W44
        BYTE   W01
// 068   ----------------------------------------
        BYTE   W48
        BYTE   W03
        BYTE           N72
        BYTE   W44
        BYTE   W01
// 069   ----------------------------------------
        BYTE   W24
        BYTE   W03
        BYTE           N08
        BYTE   W08
        BYTE                   Fs1
        BYTE   W08
        BYTE                   Gs1
        BYTE   W08
        BYTE           N48     Fs1
        BYTE   W44
        BYTE   W01
// 070   ----------------------------------------
        BYTE   W03
        BYTE                   Cs1
        BYTE   W48
        BYTE           N72     Fs1
        BYTE   W44
        BYTE   W01
// 071   ----------------------------------------
        BYTE   W24
        BYTE   W03
        BYTE           N08
        BYTE   W08
        BYTE                   Fn1
        BYTE   W08
        BYTE                   Ds1
        BYTE   W08
        BYTE           N48     Fn1
        BYTE   W44
        BYTE   W01
// 072   ----------------------------------------
        BYTE   W03
        BYTE                   Cs1
        BYTE   W48
        BYTE           N24     Ds1
        BYTE   W24
        BYTE           N08
        BYTE   W08
        BYTE                   Ds1
        BYTE   W08
        BYTE                   Ds1
        BYTE   W05
// 073   ----------------------------------------
FE4Title_8_73:
        BYTE   W03
        BYTE           N24     Fn1   v127
        BYTE   W24
        BYTE           N08
        BYTE   W08
        BYTE                   Fn1
        BYTE   W08
        BYTE                   Fn1
        BYTE   W08
        BYTE           N24     Fs1
        BYTE   W24
        BYTE           N08
        BYTE   W08
        BYTE                   Fs1
        BYTE   W08
        BYTE                   Fs1
        BYTE   W05
        BYTE   PEND
// 074   ----------------------------------------
        BYTE   W03
        BYTE           N24     Gs1
        BYTE   W24
        BYTE                   Gs1
        BYTE   W24
        BYTE                   Ds1
        BYTE   W24
        BYTE           N08
        BYTE   W08
        BYTE                   Ds1
        BYTE   W08
        BYTE                   Ds1
        BYTE   W05
// 075   ----------------------------------------
        BYTE   PATT
         POIN2  FE4Title_8_73
// 076   ----------------------------------------
        BYTE   W03
        BYTE           N24     Gs1   v127
        BYTE   W24
        BYTE                   Ds1
        BYTE   W24
        BYTE                   Cs1
        BYTE   W24
        BYTE           N12
        BYTE   W12
        BYTE           N24
        BYTE   W09
// 077   ----------------------------------------
FE4Title_8_77:
        BYTE   W15
        BYTE           N24     Cs1   v127
        BYTE   W24
        BYTE           N12
        BYTE   W24
        BYTE                   Bn0
        BYTE   W12
        BYTE           N48
        BYTE   W21
        BYTE   PEND
// 078   ----------------------------------------
        BYTE   W24
        BYTE   W03
        BYTE           N12     Ds1
        BYTE   W12
        BYTE                   Bn0
        BYTE   W12
        BYTE           N24     Cs1
        BYTE   W24
        BYTE           N12
        BYTE   W12
        BYTE           N24
        BYTE   W09
// 079   ----------------------------------------
        BYTE   PATT
         POIN2  FE4Title_8_77
// 080   ----------------------------------------
        BYTE   W24
        BYTE   W03
        BYTE           N12     Ds1   v127
        BYTE   W12
        BYTE                   Bn0
        BYTE   W12
        BYTE                   Cs1
        BYTE   W12
        BYTE           N24
        BYTE   W24
        BYTE                   Cs1
        BYTE   W09
// 081   ----------------------------------------
        BYTE   W15
        BYTE                   Cs1
        BYTE   W24
        BYTE           N12
        BYTE   W12
        BYTE           N24
        BYTE   W44
        BYTE   W01
// 082   ----------------------------------------
        BYTE   W48
        BYTE   W03
        BYTE   FINE

//***************** Track 9 (Midi-Chn.10) ******************//

FE4Title_9:
        BYTE   KEYSH   FE4Title_key+0
// 000   ----------------------------------------
        BYTE   PATT
         POIN2  FE4Title_1_0
// 001   ----------------------------------------
        BYTE   W96
// 002   ----------------------------------------
        BYTE   W48
        BYTE   W03
FE4Title_9_LOOP:
        BYTE           VOICE   73
        BYTE           PAN     c_v+36
        BYTE           VOL     96
        BYTE   W44
        BYTE   W01
// 003   ----------------------------------------
        BYTE   W96
// 004   ----------------------------------------
FE4Title_9_4:
        BYTE   W24
        BYTE   W03
        BYTE           N11     Ds4   v127
        BYTE   W18
        BYTE           N05
        BYTE   W06
        BYTE           N92     Ds4   v127   gtp3
        BYTE   W44
        BYTE   W01
        BYTE   PEND
// 005   ----------------------------------------
FE4Title_9_5:
        BYTE   W09
        BYTE           VOL     88
        BYTE   W06
        BYTE                   80
        BYTE   W06
        BYTE                   72
        BYTE   W06
        BYTE                   64
        BYTE   W06
        BYTE                   56
        BYTE   W06
        BYTE                   48
        BYTE   W06
        BYTE                   40
        BYTE   W48
        BYTE   W03
        BYTE   PEND
// 006   ----------------------------------------
        BYTE   W96
// 007   ----------------------------------------
        BYTE   W96
// 008   ----------------------------------------
FE4Title_9_8:
        BYTE   W48
        BYTE   W03
        BYTE           N44     Ds4   v127   gtp3
        BYTE   W44
        BYTE   W01
        BYTE   PEND
// 009   ----------------------------------------
FE4Title_9_9:
        BYTE   W03
        BYTE           N44     Gs4   v127   gtp3
        BYTE   W48
        BYTE           N92     Fs4   v127   gtp3
        BYTE   W44
        BYTE   W01
        BYTE   PEND
// 010   ----------------------------------------
FE4Title_9_10:
        BYTE   W09
        BYTE           VOL     32
        BYTE   W06
        BYTE                   24
        BYTE   W06
        BYTE                   16
        BYTE   W06
        BYTE                   8
        BYTE   W06
        BYTE                   0
        BYTE   W18
        BYTE                   80
        BYTE           VOICE   45
        BYTE           N06     Cs3   v127
        BYTE           N06     Fs3
        BYTE   W12
        BYTE                   Cs3
        BYTE           N06     Fs3
        BYTE   W24
        BYTE                   Cs3
        BYTE           N06     Fs3
        BYTE   W06
        BYTE                   Cs3
        BYTE           N06     Fs3
        BYTE   W03
        BYTE   PEND
// 011   ----------------------------------------
FE4Title_9_11:
        BYTE   W03
        BYTE           N06     Cs3   v127
        BYTE           N06     Fs3
        BYTE   W12
        BYTE                   Cs3
        BYTE           N06     Fs3
        BYTE   W24
        BYTE                   Cs3
        BYTE           N06     Fs3
        BYTE   W12
        BYTE                   Cs3
        BYTE           N06     Gs3
        BYTE   W12
        BYTE                   Cs3
        BYTE           N06     Gs3
        BYTE   W24
        BYTE                   Cs3
        BYTE           N06     Gs3
        BYTE   W06
        BYTE                   Cs3
        BYTE           N06     Gs3
        BYTE   W03
        BYTE   PEND
// 012   ----------------------------------------
FE4Title_9_12:
        BYTE   W03
        BYTE           N06     Cs3   v127
        BYTE           N06     Gs3
        BYTE   W12
        BYTE                   Cs3
        BYTE           N06     Gs3
        BYTE   W24
        BYTE                   Cs3
        BYTE           N06     Gs3
        BYTE   W12
        BYTE                   Cs3
        BYTE           N06     Gs3
        BYTE   W12
        BYTE                   Cs3
        BYTE           N06     Gs3
        BYTE   W24
        BYTE                   Cs3
        BYTE           N06     Gs3
        BYTE   W06
        BYTE                   Cs3
        BYTE           N06     Gs3
        BYTE   W03
        BYTE   PEND
// 013   ----------------------------------------
        BYTE   PATT
         POIN2  FE4Title_9_12
// 014   ----------------------------------------
FE4Title_9_14:
        BYTE   W03
        BYTE           N06     Cs3   v127
        BYTE           N06     Fs3
        BYTE   W24
        BYTE                   Cs3
        BYTE           N06     Fn3
        BYTE   W24
        BYTE                   Cs3
        BYTE           N06     Fs3
        BYTE   W12
        BYTE                   Cs3
        BYTE           N06     Fs3
        BYTE   W24
        BYTE                   Cs3
        BYTE           N06     Fs3
        BYTE   W06
        BYTE                   Cs3
        BYTE           N06     Fs3
        BYTE   W03
        BYTE   PEND
// 015   ----------------------------------------
        BYTE   PATT
         POIN2  FE4Title_9_11
// 016   ----------------------------------------
        BYTE   PATT
         POIN2  FE4Title_9_12
// 017   ----------------------------------------
FE4Title_9_17:
        BYTE   W03
        BYTE           N06     Cs3   v127
        BYTE           N06     Fn3
        BYTE   W12
        BYTE                   Cs3
        BYTE           N06     Fn3
        BYTE   W24
        BYTE                   Cs3
        BYTE           N06     Fn3
        BYTE   W12
        BYTE                   Cs3
        BYTE           N06     Fs3
        BYTE   W12
        BYTE                   Cs3
        BYTE           N06     Fs3
        BYTE   W24
        BYTE                   Cs3
        BYTE           N06     Fs3
        BYTE   W06
        BYTE                   Cs3
        BYTE           N06     Fs3
        BYTE   W03
        BYTE   PEND
// 018   ----------------------------------------
FE4Title_9_18:
        BYTE   W03
        BYTE           N06     Cs3   v127
        BYTE           N06     Fs3
        BYTE   W48
        BYTE           VOICE   57
        BYTE           PAN     c_v-44
        BYTE           VOL     104
        BYTE   W44
        BYTE   W01
        BYTE   PEND
// 019   ----------------------------------------
        BYTE   W96
// 020   ----------------------------------------
        BYTE   W96
// 021   ----------------------------------------
        BYTE   W96
// 022   ----------------------------------------
        BYTE   W96
// 023   ----------------------------------------
        BYTE   W96
// 024   ----------------------------------------
FE4Title_9_24:
        BYTE   W48
        BYTE   W03
        BYTE           N32     Ds3   v127   gtp3
        BYTE   W36
        BYTE           N05
        BYTE   W06
        BYTE                   Ds3
        BYTE   W03
        BYTE   PEND
// 025   ----------------------------------------
FE4Title_9_25:
        BYTE   W15
        BYTE           N05     Ds3   v127
        BYTE   W12
        BYTE                   Ds3
        BYTE   W12
        BYTE                   Ds3
        BYTE   W12
        BYTE           N44     Cs3   v127   gtp3
        BYTE   W44
        BYTE   W01
        BYTE   PEND
// 026   ----------------------------------------
        BYTE   W03
        BYTE                   Cs3
        BYTE   W48
        BYTE           VOICE   73
        BYTE           VOL     96
        BYTE           PAN     c_v+36
        BYTE   GoTo
         POIN2  FE4Title_9_LOOP
        BYTE   W44
        BYTE   W01
// 027   ----------------------------------------
        BYTE   W96
// 028   ----------------------------------------
        BYTE   PATT
         POIN2  FE4Title_9_4
// 029   ----------------------------------------
        BYTE   PATT
         POIN2  FE4Title_9_5
// 030   ----------------------------------------
        BYTE   W96
// 031   ----------------------------------------
        BYTE   W96
// 032   ----------------------------------------
        BYTE   PATT
         POIN2  FE4Title_9_8
// 033   ----------------------------------------
        BYTE   PATT
         POIN2  FE4Title_9_9
// 034   ----------------------------------------
        BYTE   PATT
         POIN2  FE4Title_9_10
// 035   ----------------------------------------
        BYTE   PATT
         POIN2  FE4Title_9_11
// 036   ----------------------------------------
        BYTE   PATT
         POIN2  FE4Title_9_12
// 037   ----------------------------------------
        BYTE   PATT
         POIN2  FE4Title_9_12
// 038   ----------------------------------------
        BYTE   PATT
         POIN2  FE4Title_9_14
// 039   ----------------------------------------
        BYTE   PATT
         POIN2  FE4Title_9_11
// 040   ----------------------------------------
        BYTE   PATT
         POIN2  FE4Title_9_12
// 041   ----------------------------------------
        BYTE   PATT
         POIN2  FE4Title_9_17
// 042   ----------------------------------------
        BYTE   PATT
         POIN2  FE4Title_9_18
// 043   ----------------------------------------
        BYTE   W96
// 044   ----------------------------------------
        BYTE   W96
// 045   ----------------------------------------
        BYTE   W96
// 046   ----------------------------------------
        BYTE   W96
// 047   ----------------------------------------
        BYTE   W96
// 048   ----------------------------------------
        BYTE   PATT
         POIN2  FE4Title_9_24
// 049   ----------------------------------------
        BYTE   PATT
         POIN2  FE4Title_9_25
// 050   ----------------------------------------
        BYTE   W03
        BYTE           N44     Cs3   v127   gtp3
        BYTE   W48
        BYTE           VOICE   73
        BYTE           PAN     c_v+36
        BYTE           VOL     96
        BYTE   W44
        BYTE   W01
// 051   ----------------------------------------
        BYTE   W96
// 052   ----------------------------------------
        BYTE   PATT
         POIN2  FE4Title_9_4
// 053   ----------------------------------------
        BYTE   PATT
         POIN2  FE4Title_9_5
// 054   ----------------------------------------
        BYTE   W96
// 055   ----------------------------------------
        BYTE   W96
// 056   ----------------------------------------
        BYTE   PATT
         POIN2  FE4Title_9_8
// 057   ----------------------------------------
        BYTE   PATT
         POIN2  FE4Title_9_9
// 058   ----------------------------------------
        BYTE   PATT
         POIN2  FE4Title_9_10
// 059   ----------------------------------------
        BYTE   PATT
         POIN2  FE4Title_9_11
// 060   ----------------------------------------
        BYTE   PATT
         POIN2  FE4Title_9_12
// 061   ----------------------------------------
        BYTE   PATT
         POIN2  FE4Title_9_12
// 062   ----------------------------------------
        BYTE   PATT
         POIN2  FE4Title_9_14
// 063   ----------------------------------------
        BYTE   PATT
         POIN2  FE4Title_9_11
// 064   ----------------------------------------
        BYTE   PATT
         POIN2  FE4Title_9_12
// 065   ----------------------------------------
        BYTE   PATT
         POIN2  FE4Title_9_17
// 066   ----------------------------------------
        BYTE   W03
        BYTE           N06     Cs3   v127
        BYTE           N06     Fs3
        BYTE   W92
        BYTE   W01
// 067   ----------------------------------------
        BYTE   W96
// 068   ----------------------------------------
        BYTE   W96
// 069   ----------------------------------------
        BYTE   W96
// 070   ----------------------------------------
        BYTE   W96
// 071   ----------------------------------------
        BYTE   W96
// 072   ----------------------------------------
        BYTE   W96
// 073   ----------------------------------------
        BYTE   W96
// 074   ----------------------------------------
        BYTE   W96
// 075   ----------------------------------------
        BYTE   W96
// 076   ----------------------------------------
        BYTE   W96
// 077   ----------------------------------------
        BYTE   W96
// 078   ----------------------------------------
        BYTE   W96
// 079   ----------------------------------------
        BYTE   W96
// 080   ----------------------------------------
        BYTE   W96
// 081   ----------------------------------------
        BYTE   W96
// 082   ----------------------------------------
        BYTE   W48
        BYTE   W03
        BYTE   FINE

//***************** Track 10 (Midi-Chn.11) *****************//

FE4Title_10:
        BYTE   KEYSH   FE4Title_key+0
// 000   ----------------------------------------
        BYTE           VOICE   121
        BYTE   W02
        BYTE           BENDR   12
        BYTE           VOL     64
        BYTE   W48
        BYTE   W01
        BYTE                   96
        BYTE           N04     Dn1   v127
        BYTE   W04
        BYTE                   Dn1   v077
        BYTE   W04
        BYTE                   Dn1
        BYTE   W04
        BYTE                   Dn1   v127
        BYTE   W04
        BYTE                   Dn1   v077
        BYTE   W04
        BYTE                   Dn1
        BYTE   W04
        BYTE           N06
        BYTE   W06
        BYTE           N03
        BYTE   W03
        BYTE                   Dn1
        BYTE   W03
        BYTE           N12     Dn1   v127
        BYTE   W09
// 001   ----------------------------------------
FE4Title_10_1:
        BYTE   W03
        BYTE           N06     Dn1   v077
        BYTE   W06
        BYTE           N03
        BYTE   W03
        BYTE                   Dn1
        BYTE   W03
        BYTE           N12     Dn1   v127
        BYTE   W12
        BYTE           N18
        BYTE   W18
        BYTE           N06
        BYTE   W06
        BYTE           N04
        BYTE   W04
        BYTE                   Dn1   v077
        BYTE   W04
        BYTE                   Dn1
        BYTE   W04
        BYTE                   Dn1   v127
        BYTE   W04
        BYTE                   Dn1   v077
        BYTE   W04
        BYTE                   Dn1
        BYTE   W04
        BYTE           N06
        BYTE   W06
        BYTE           N03
        BYTE   W03
        BYTE                   Dn1
        BYTE   W03
        BYTE           N12     Dn1   v127
        BYTE   W09
        BYTE   PEND
// 002   ----------------------------------------
        BYTE   W03
        BYTE           N06     Dn1   v077
        BYTE   W06
        BYTE           N03
        BYTE   W03
        BYTE                   Dn1
        BYTE   W03
        BYTE           N12     Dn1   v127
        BYTE   W12
        BYTE           N18
        BYTE           N03     An2   v063
        BYTE   W03
        BYTE                   An2   v070
        BYTE   W03
        BYTE                   An2   v077
        BYTE   W03
        BYTE                   An2   v084
        BYTE   W03
        BYTE                   An2   v091
        BYTE   W03
        BYTE                   An2   v098
        BYTE   W03
        BYTE           N06     Dn1   v127
        BYTE           N03     An2   v105
        BYTE   W03
        BYTE                   An2   v112
        BYTE   W03
FE4Title_10_LOOP:
        BYTE           N04     Dn1   v127
        BYTE           N96     An2
        BYTE   W04
        BYTE           N04     Dn1   v077
        BYTE   W04
        BYTE                   Dn1
        BYTE   W04
        BYTE                   Dn1   v127
        BYTE   W04
        BYTE                   Dn1   v077
        BYTE   W04
        BYTE                   Dn1
        BYTE   W04
        BYTE           N06
        BYTE   W06
        BYTE           N03
        BYTE   W03
        BYTE                   Dn1
        BYTE   W03
        BYTE           N12     Dn1   v127
        BYTE   W09
// 003   ----------------------------------------
        BYTE   PATT
         POIN2  FE4Title_10_1
// 004   ----------------------------------------
        BYTE   PATT
         POIN2  FE4Title_10_1
// 005   ----------------------------------------
FE4Title_10_5:
        BYTE   W03
        BYTE           N06     Dn1   v127
        BYTE   W06
        BYTE                   Dn1   v077
        BYTE   W06
        BYTE                   Dn1
        BYTE   W06
        BYTE                   Dn1   v127
        BYTE   W06
        BYTE                   Dn1   v077
        BYTE   W06
        BYTE                   Dn1
        BYTE   W06
        BYTE           N12     Dn1   v127
        BYTE   W12
        BYTE           N04
        BYTE   W04
        BYTE           N05     Dn1   v077
        BYTE   W05
        BYTE           N04
        BYTE   W04
        BYTE           N05
        BYTE   W05
        BYTE           N04     Dn1   v127
        BYTE   W04
        BYTE           N05     Dn1   v077
        BYTE   W05
        BYTE           N04
        BYTE   W04
        BYTE           N05
        BYTE   W05
        BYTE           N04     Dn1   v127
        BYTE   W04
        BYTE                   Dn1   v077
        BYTE   W04
        BYTE                   Dn1
        BYTE   W01
        BYTE   PEND
// 006   ----------------------------------------
FE4Title_10_6:
        BYTE   W03
        BYTE           N04     Dn1   v077
        BYTE   W04
        BYTE                   Dn1
        BYTE   W04
        BYTE                   Dn1
        BYTE   W04
        BYTE           N03     Dn1   v127
        BYTE   W03
        BYTE                   Dn1   v077
        BYTE   W03
        BYTE                   Dn1
        BYTE   W03
        BYTE                   Dn1
        BYTE   W03
        BYTE           N18     Dn1   v127
        BYTE   W18
        BYTE           N06
        BYTE   W06
        BYTE           N04
        BYTE   W04
        BYTE                   Dn1   v077
        BYTE   W04
        BYTE                   Dn1
        BYTE   W04
        BYTE                   Dn1   v127
        BYTE   W04
        BYTE                   Dn1   v077
        BYTE   W04
        BYTE                   Dn1
        BYTE   W04
        BYTE           N06
        BYTE   W06
        BYTE           N03
        BYTE   W03
        BYTE                   Dn1
        BYTE   W03
        BYTE           N12     Dn1   v127
        BYTE   W09
        BYTE   PEND
// 007   ----------------------------------------
        BYTE   PATT
         POIN2  FE4Title_10_1
// 008   ----------------------------------------
        BYTE   PATT
         POIN2  FE4Title_10_1
// 009   ----------------------------------------
        BYTE   PATT
         POIN2  FE4Title_10_1
// 010   ----------------------------------------
FE4Title_10_10:
        BYTE   W03
        BYTE           N24     Dn1   v127
        BYTE   W24
        BYTE           N06     Dn1   v077
        BYTE           N03     An2   v063
        BYTE   W03
        BYTE                   An2   v070
        BYTE   W03
        BYTE           N06     Dn1   v077
        BYTE           N03     An2
        BYTE   W03
        BYTE                   An2   v084
        BYTE   W03
        BYTE           N12     Dn1   v127
        BYTE           N03     An2   v091
        BYTE   W03
        BYTE                   An2   v098
        BYTE   W03
        BYTE                   An2   v105
        BYTE   W03
        BYTE                   An2   v112
        BYTE   W03
        BYTE           N04     Dn1   v127
        BYTE           N96     An2
        BYTE   W04
        BYTE           N04     Dn1   v077
        BYTE   W04
        BYTE                   Dn1
        BYTE   W04
        BYTE                   Dn1   v127
        BYTE   W04
        BYTE                   Dn1   v077
        BYTE   W04
        BYTE                   Dn1
        BYTE   W04
        BYTE           N06
        BYTE   W06
        BYTE           N03
        BYTE   W03
        BYTE                   Dn1
        BYTE   W03
        BYTE           N12     Dn1   v127
        BYTE   W09
        BYTE   PEND
// 011   ----------------------------------------
FE4Title_10_11:
        BYTE   W03
        BYTE           N06     Dn1   v077
        BYTE   W06
        BYTE           N03
        BYTE   W03
        BYTE                   Dn1
        BYTE   W03
        BYTE           N12     Dn1   v127
        BYTE   W12
        BYTE                   Dn1
        BYTE   W12
        BYTE           N03     Dn1   v077
        BYTE   W03
        BYTE                   Dn1
        BYTE   W03
        BYTE           N06     Dn1   v127
        BYTE   W06
        BYTE           N04
        BYTE   W04
        BYTE                   Dn1   v077
        BYTE   W04
        BYTE                   Dn1
        BYTE   W04
        BYTE                   Dn1   v127
        BYTE   W04
        BYTE                   Dn1   v077
        BYTE   W04
        BYTE                   Dn1
        BYTE   W04
        BYTE           N06
        BYTE   W06
        BYTE           N03
        BYTE   W03
        BYTE                   Dn1
        BYTE   W03
        BYTE           N04     Dn1   v127
        BYTE   W04
        BYTE                   Dn1   v077
        BYTE   W04
        BYTE                   Dn1
        BYTE   W01
        BYTE   PEND
// 012   ----------------------------------------
FE4Title_10_12:
        BYTE   W03
        BYTE           N06     Dn1   v077
        BYTE   W06
        BYTE           N03
        BYTE   W03
        BYTE                   Dn1
        BYTE   W03
        BYTE           N04     Dn1   v127
        BYTE   W04
        BYTE                   Dn1   v077
        BYTE   W04
        BYTE                   Dn1
        BYTE   W04
        BYTE           N12     Dn1   v127
        BYTE   W12
        BYTE           N03     Dn1   v077
        BYTE   W03
        BYTE                   Dn1
        BYTE   W03
        BYTE           N06     Dn1   v127
        BYTE   W06
        BYTE           N04
        BYTE   W04
        BYTE                   Dn1   v077
        BYTE   W04
        BYTE                   Dn1
        BYTE   W04
        BYTE                   Dn1   v127
        BYTE   W04
        BYTE                   Dn1   v077
        BYTE   W04
        BYTE                   Dn1
        BYTE   W04
        BYTE           N06
        BYTE   W06
        BYTE           N03
        BYTE   W03
        BYTE                   Dn1
        BYTE   W03
        BYTE           N12     Dn1   v127
        BYTE   W09
        BYTE   PEND
// 013   ----------------------------------------
FE4Title_10_13:
        BYTE   W03
        BYTE           N06     Dn1   v077
        BYTE   W06
        BYTE           N03
        BYTE   W03
        BYTE                   Dn1
        BYTE   W03
        BYTE           N12     Dn1   v127
        BYTE   W12
        BYTE                   Dn1
        BYTE   W12
        BYTE           N03     Dn1   v077
        BYTE   W03
        BYTE                   Dn1
        BYTE   W03
        BYTE           N06     Dn1   v127
        BYTE   W06
        BYTE           N12
        BYTE   W12
        BYTE           N06     Dn1   v077
        BYTE   W06
        BYTE                   Dn1
        BYTE   W06
        BYTE           N12     Dn1   v127
        BYTE   W12
        BYTE           N06     Dn1   v077
        BYTE   W06
        BYTE                   Dn1
        BYTE   W03
        BYTE   PEND
// 014   ----------------------------------------
FE4Title_10_14:
        BYTE   W03
        BYTE           N06     Dn1   v077
        BYTE   W06
        BYTE                   Dn1
        BYTE   W06
        BYTE           N12     Dn1   v127
        BYTE   W12
        BYTE           N06
        BYTE   W06
        BYTE           N04     Dn1   v077
        BYTE   W04
        BYTE           N05
        BYTE   W05
        BYTE           N04
        BYTE   W04
        BYTE           N05
        BYTE   W05
        BYTE           N04     Dn1   v127
        BYTE   W04
        BYTE                   Dn1   v077
        BYTE   W04
        BYTE                   Dn1
        BYTE   W04
        BYTE                   Dn1   v127
        BYTE   W04
        BYTE                   Dn1   v077
        BYTE   W04
        BYTE                   Dn1
        BYTE   W04
        BYTE           N06
        BYTE   W06
        BYTE           N03
        BYTE   W03
        BYTE                   Dn1
        BYTE   W03
        BYTE           N12     Dn1   v127
        BYTE   W09
        BYTE   PEND
// 015   ----------------------------------------
        BYTE   PATT
         POIN2  FE4Title_10_11
// 016   ----------------------------------------
        BYTE   PATT
         POIN2  FE4Title_10_12
// 017   ----------------------------------------
FE4Title_10_17:
        BYTE   W03
        BYTE           N06     Dn1   v077
        BYTE   W06
        BYTE           N03
        BYTE   W03
        BYTE                   Dn1
        BYTE   W03
        BYTE           N12     Dn1   v127
        BYTE   W12
        BYTE                   Dn1
        BYTE   W12
        BYTE           N03     Dn1   v077
        BYTE   W03
        BYTE                   Dn1
        BYTE   W03
        BYTE           N06     Dn1   v127
        BYTE   W06
        BYTE           N12
        BYTE   W12
        BYTE           N06     Dn1   v077
        BYTE   W06
        BYTE                   Dn1
        BYTE   W06
        BYTE                   Dn1
        BYTE   W06
        BYTE                   Dn1
        BYTE   W06
        BYTE                   Dn1   v127
        BYTE   W06
        BYTE                   Dn1   v077
        BYTE   W03
        BYTE   PEND
// 018   ----------------------------------------
FE4Title_10_18:
        BYTE   W03
        BYTE           N06     Dn1   v127
        BYTE   W06
        BYTE           N04     Dn1   v077
        BYTE   W04
        BYTE           N05
        BYTE   W05
        BYTE           N04
        BYTE   W04
        BYTE           N05
        BYTE   W05
        BYTE           N06     Dn1   v127
        BYTE           N24     An2
        BYTE   W06
        BYTE           N06     Dn1   v077
        BYTE   W06
        BYTE                   Dn1
        BYTE   W06
        BYTE                   Dn1
        BYTE   W06
        BYTE           N12     Dn1   v090
        BYTE   W12
        BYTE           N06     Dn1   v040
        BYTE   W06
        BYTE                   Dn1
        BYTE   W06
        BYTE           N12     Dn1   v090
        BYTE   W12
        BYTE           N06     Dn1   v040
        BYTE   W06
        BYTE                   Dn1
        BYTE   W03
        BYTE   PEND
// 019   ----------------------------------------
FE4Title_10_19:
        BYTE   W03
        BYTE           N04     Dn1   v040
        BYTE   W04
        BYTE                   Dn1
        BYTE   W04
        BYTE                   Dn1
        BYTE   W04
        BYTE           N12     Dn1   v090
        BYTE   W12
        BYTE           N06
        BYTE   W06
        BYTE           N04     Dn1   v040
        BYTE   W04
        BYTE                   Dn1
        BYTE   W04
        BYTE                   Dn1
        BYTE   W04
        BYTE           N06     Dn1   v090
        BYTE   W06
        BYTE           N12
        BYTE   W12
        BYTE           N06     Dn1   v040
        BYTE   W06
        BYTE                   Dn1
        BYTE   W06
        BYTE           N12     Dn1   v090
        BYTE   W12
        BYTE           N06     Dn1   v040
        BYTE   W06
        BYTE                   Dn1
        BYTE   W03
        BYTE   PEND
// 020   ----------------------------------------
        BYTE   PATT
         POIN2  FE4Title_10_19
// 021   ----------------------------------------
FE4Title_10_21:
        BYTE   W03
        BYTE           N04     Dn1   v040
        BYTE   W04
        BYTE                   Dn1
        BYTE   W04
        BYTE                   Dn1
        BYTE   W04
        BYTE           N12     Dn1   v090
        BYTE   W12
        BYTE           N06
        BYTE   W06
        BYTE           N04     Dn1   v040
        BYTE   W04
        BYTE                   Dn1
        BYTE   W04
        BYTE                   Dn1
        BYTE   W04
        BYTE           N06     Dn1   v090
        BYTE   W06
        BYTE                   Dn1
        BYTE   W06
        BYTE                   Dn1   v040
        BYTE   W06
        BYTE                   Dn1   v090
        BYTE   W06
        BYTE                   Dn1   v040
        BYTE   W06
        BYTE                   Dn1   v090
        BYTE   W06
        BYTE           N03     Dn1   v040
        BYTE   W03
        BYTE                   Dn1
        BYTE   W03
        BYTE           N06     Dn1   v090
        BYTE   W06
        BYTE           N02     Dn1   v040
        BYTE   W02
        BYTE                   Dn1
        BYTE   W01
        BYTE   PEND
// 022   ----------------------------------------
FE4Title_10_22:
        BYTE   W01
        BYTE           N08     Dn1   v040
        BYTE   W08
        BYTE           N03
        BYTE   W03
        BYTE                   Dn1
        BYTE   W03
        BYTE           N06     Dn1   v090
        BYTE   W06
        BYTE           N03     Dn1   v040
        BYTE   W03
        BYTE                   Dn1
        BYTE   W03
        BYTE           N06     Dn1   v090
        BYTE   W06
        BYTE           N04     Dn1   v040
        BYTE   W04
        BYTE                   Dn1
        BYTE   W04
        BYTE                   Dn1
        BYTE   W04
        BYTE           N06     Dn1   v090
        BYTE   W06
        BYTE           N12     Dn1   v127
        BYTE   W12
        BYTE           N06     Dn1   v077
        BYTE   W06
        BYTE                   Dn1
        BYTE   W06
        BYTE           N12     Dn1   v127
        BYTE   W12
        BYTE           N06     Dn1   v077
        BYTE   W06
        BYTE                   Dn1
        BYTE   W03
        BYTE   PEND
// 023   ----------------------------------------
FE4Title_10_23:
        BYTE   W03
        BYTE           N04     Dn1   v077
        BYTE   W04
        BYTE                   Dn1
        BYTE   W04
        BYTE                   Dn1
        BYTE   W04
        BYTE           N12     Dn1   v127
        BYTE   W12
        BYTE           N06
        BYTE   W06
        BYTE           N04     Dn1   v077
        BYTE   W04
        BYTE                   Dn1
        BYTE   W04
        BYTE                   Dn1
        BYTE   W04
        BYTE           N06     Dn1   v127
        BYTE   W06
        BYTE           N12
        BYTE   W12
        BYTE           N06     Dn1   v077
        BYTE   W06
        BYTE                   Dn1
        BYTE   W06
        BYTE           N12     Dn1   v127
        BYTE   W12
        BYTE           N06     Dn1   v077
        BYTE   W06
        BYTE                   Dn1
        BYTE   W03
        BYTE   PEND
// 024   ----------------------------------------
        BYTE   PATT
         POIN2  FE4Title_10_23
// 025   ----------------------------------------
FE4Title_10_25:
        BYTE   W03
        BYTE           N04     Dn1   v077
        BYTE   W04
        BYTE                   Dn1
        BYTE   W04
        BYTE                   Dn1
        BYTE   W04
        BYTE           N12     Dn1   v127
        BYTE   W12
        BYTE           N06
        BYTE   W06
        BYTE           N04     Dn1   v077
        BYTE   W04
        BYTE                   Dn1
        BYTE   W04
        BYTE                   Dn1
        BYTE   W04
        BYTE           N06     Dn1   v127
        BYTE   W06
        BYTE                   Dn1
        BYTE   W06
        BYTE           N03     Dn1   v077
        BYTE   W03
        BYTE                   Dn1
        BYTE   W03
        BYTE           N06     Dn1   v127
        BYTE   W06
        BYTE           N03     Dn1   v077
        BYTE   W03
        BYTE                   Dn1
        BYTE   W03
        BYTE           N06     Dn1   v127
        BYTE   W06
        BYTE                   Dn1
        BYTE   W06
        BYTE           N12     Dn1   v077
        BYTE   W09
        BYTE   PEND
// 026   ----------------------------------------
        BYTE   W03
        BYTE           N06     Dn1   v127
        BYTE   W06
        BYTE           N03     Dn1   v077
        BYTE   W03
        BYTE                   Dn1
        BYTE   W03
        BYTE           N06     Dn1   v127
        BYTE   W06
        BYTE           N03     Dn1   v077
        BYTE   W03
        BYTE                   Dn1
        BYTE   W03
        BYTE           N06     Dn1   v127
        BYTE           N03     An2   v063
        BYTE   W03
        BYTE                   An2   v070
        BYTE   W03
        BYTE           N06     Dn1   v127
        BYTE           N03     An2   v077
        BYTE   W03
        BYTE                   An2   v084
        BYTE   W03
        BYTE           N12     Dn1   v077
        BYTE           N03     An2   v091
        BYTE   W03
        BYTE                   An2   v098
        BYTE   W03
        BYTE                   An2   v105
        BYTE   W03
        BYTE                   An2   v112
        BYTE   W03
        BYTE           N04     Dn1   v127
        BYTE           N96     An2
        BYTE   GoTo
         POIN2  FE4Title_10_LOOP
        BYTE   W04
        BYTE           N04     Dn1   v077
        BYTE   W04
        BYTE                   Dn1
        BYTE   W04
        BYTE                   Dn1   v127
        BYTE   W04
        BYTE                   Dn1   v077
        BYTE   W04
        BYTE                   Dn1
        BYTE   W04
        BYTE           N06
        BYTE   W06
        BYTE           N03
        BYTE   W03
        BYTE                   Dn1
        BYTE   W03
        BYTE           N12     Dn1   v127
        BYTE   W09
// 027   ----------------------------------------
        BYTE   PATT
         POIN2  FE4Title_10_1
// 028   ----------------------------------------
        BYTE   PATT
         POIN2  FE4Title_10_1
// 029   ----------------------------------------
        BYTE   PATT
         POIN2  FE4Title_10_5
// 030   ----------------------------------------
        BYTE   PATT
         POIN2  FE4Title_10_6
// 031   ----------------------------------------
        BYTE   PATT
         POIN2  FE4Title_10_1
// 032   ----------------------------------------
        BYTE   PATT
         POIN2  FE4Title_10_1
// 033   ----------------------------------------
        BYTE   PATT
         POIN2  FE4Title_10_1
// 034   ----------------------------------------
        BYTE   PATT
         POIN2  FE4Title_10_10
// 035   ----------------------------------------
        BYTE   PATT
         POIN2  FE4Title_10_11
// 036   ----------------------------------------
        BYTE   PATT
         POIN2  FE4Title_10_12
// 037   ----------------------------------------
        BYTE   PATT
         POIN2  FE4Title_10_13
// 038   ----------------------------------------
        BYTE   PATT
         POIN2  FE4Title_10_14
// 039   ----------------------------------------
        BYTE   PATT
         POIN2  FE4Title_10_11
// 040   ----------------------------------------
        BYTE   PATT
         POIN2  FE4Title_10_12
// 041   ----------------------------------------
        BYTE   PATT
         POIN2  FE4Title_10_17
// 042   ----------------------------------------
        BYTE   PATT
         POIN2  FE4Title_10_18
// 043   ----------------------------------------
        BYTE   PATT
         POIN2  FE4Title_10_19
// 044   ----------------------------------------
        BYTE   PATT
         POIN2  FE4Title_10_19
// 045   ----------------------------------------
        BYTE   PATT
         POIN2  FE4Title_10_21
// 046   ----------------------------------------
        BYTE   PATT
         POIN2  FE4Title_10_22
// 047   ----------------------------------------
        BYTE   PATT
         POIN2  FE4Title_10_23
// 048   ----------------------------------------
        BYTE   PATT
         POIN2  FE4Title_10_23
// 049   ----------------------------------------
        BYTE   PATT
         POIN2  FE4Title_10_25
// 050   ----------------------------------------
        BYTE   W03
        BYTE           N06     Dn1   v127
        BYTE   W06
        BYTE           N03     Dn1   v077
        BYTE   W03
        BYTE                   Dn1
        BYTE   W03
        BYTE           N06     Dn1   v127
        BYTE   W06
        BYTE           N03     Dn1   v077
        BYTE   W03
        BYTE                   Dn1
        BYTE   W03
        BYTE           N06     Dn1   v127
        BYTE           N03     An2   v063
        BYTE   W03
        BYTE                   An2   v070
        BYTE   W03
        BYTE           N06     Dn1   v127
        BYTE           N03     An2   v077
        BYTE   W03
        BYTE                   An2   v084
        BYTE   W03
        BYTE           N12     Dn1   v077
        BYTE           N03     An2   v091
        BYTE   W03
        BYTE                   An2   v098
        BYTE   W03
        BYTE                   An2   v105
        BYTE   W03
        BYTE                   An2   v112
        BYTE   W03
        BYTE           N04     Dn1   v127
        BYTE           N96     An2
        BYTE   W04
        BYTE           N04     Dn1   v077
        BYTE   W04
        BYTE                   Dn1
        BYTE   W04
        BYTE                   Dn1   v127
        BYTE   W04
        BYTE                   Dn1   v077
        BYTE   W04
        BYTE                   Dn1
        BYTE   W04
        BYTE           N06
        BYTE   W06
        BYTE           N03
        BYTE   W03
        BYTE                   Dn1
        BYTE   W03
        BYTE           N12     Dn1   v127
        BYTE   W09
// 051   ----------------------------------------
        BYTE   PATT
         POIN2  FE4Title_10_1
// 052   ----------------------------------------
        BYTE   PATT
         POIN2  FE4Title_10_1
// 053   ----------------------------------------
        BYTE   PATT
         POIN2  FE4Title_10_5
// 054   ----------------------------------------
        BYTE   PATT
         POIN2  FE4Title_10_6
// 055   ----------------------------------------
        BYTE   PATT
         POIN2  FE4Title_10_1
// 056   ----------------------------------------
        BYTE   PATT
         POIN2  FE4Title_10_1
// 057   ----------------------------------------
        BYTE   PATT
         POIN2  FE4Title_10_1
// 058   ----------------------------------------
        BYTE   PATT
         POIN2  FE4Title_10_10
// 059   ----------------------------------------
        BYTE   PATT
         POIN2  FE4Title_10_11
// 060   ----------------------------------------
        BYTE   PATT
         POIN2  FE4Title_10_12
// 061   ----------------------------------------
        BYTE   PATT
         POIN2  FE4Title_10_13
// 062   ----------------------------------------
        BYTE   PATT
         POIN2  FE4Title_10_14
// 063   ----------------------------------------
        BYTE   PATT
         POIN2  FE4Title_10_11
// 064   ----------------------------------------
        BYTE   PATT
         POIN2  FE4Title_10_12
// 065   ----------------------------------------
        BYTE   PATT
         POIN2  FE4Title_10_17
// 066   ----------------------------------------
        BYTE   W03
        BYTE           N06     Dn1   v127
        BYTE   W06
        BYTE           N04     Dn1   v077
        BYTE   W04
        BYTE           N05
        BYTE   W05
        BYTE           N04
        BYTE   W04
        BYTE           N05
        BYTE   W05
        BYTE           N06     Dn1   v127
        BYTE           N03     An2   v063
        BYTE   W03
        BYTE                   An2   v070
        BYTE   W03
        BYTE           N06     Dn1   v077
        BYTE           N03     An2
        BYTE   W03
        BYTE                   An2   v084
        BYTE   W03
        BYTE           N06     Dn1   v077
        BYTE           N03     An2   v091
        BYTE   W03
        BYTE                   An2   v098
        BYTE   W03
        BYTE           N06     Dn1   v077
        BYTE           N03     An2   v105
        BYTE   W03
        BYTE                   An2   v112
        BYTE   W03
        BYTE           TIE     Dn1   v127
        BYTE           N96     An2
        BYTE   W44
        BYTE   W01
// 067   ----------------------------------------
        BYTE   W96
// 068   ----------------------------------------
        BYTE   W03
        BYTE           N03     An2   v063
        BYTE   W03
        BYTE                   An2   v070
        BYTE   W03
        BYTE                   An2   v077
        BYTE   W03
        BYTE                   An2   v084
        BYTE   W03
        BYTE                   An2   v091
        BYTE   W03
        BYTE                   An2   v098
        BYTE   W03
        BYTE                   An2   v105
        BYTE   W03
        BYTE                   An2   v112
        BYTE   W03
        BYTE           N24     An2   v127
        BYTE   W24
        BYTE           N96     Bn2
        BYTE   W44
        BYTE   W01
// 069   ----------------------------------------
        BYTE   W96
// 070   ----------------------------------------
        BYTE   W24
        BYTE   W03
        BYTE           N03     An2   v063
        BYTE   W03
        BYTE                   An2   v070
        BYTE   W03
        BYTE                   An2   v077
        BYTE   W03
        BYTE                   An2   v084
        BYTE   W03
        BYTE                   An2   v091
        BYTE   W03
        BYTE                   An2   v098
        BYTE   W03
        BYTE                   An2   v105
        BYTE   W03
        BYTE                   An2   v112
        BYTE   W03
        BYTE           N72     An2   v127
        BYTE   W44
        BYTE   W01
// 071   ----------------------------------------
        BYTE   W24
        BYTE   W03
        BYTE           N03     An2   v063
        BYTE   W03
        BYTE                   An2   v070
        BYTE   W03
        BYTE                   An2   v077
        BYTE   W03
        BYTE                   An2   v084
        BYTE   W03
        BYTE                   An2   v091
        BYTE   W03
        BYTE                   An2   v098
        BYTE   W03
        BYTE                   An2   v105
        BYTE   W03
        BYTE                   An2   v112
        BYTE   W03
        BYTE           N96     An2   v127
        BYTE   W44
        BYTE   W01
// 072   ----------------------------------------
        BYTE   W48
        BYTE   W03
        BYTE                   Bn2
        BYTE   W44
        BYTE   W01
// 073   ----------------------------------------
        BYTE   W96
// 074   ----------------------------------------
        BYTE   W48
        BYTE   W03
        BYTE           N24     An2
        BYTE   W24
        BYTE                   Bn2
        BYTE   W21
// 075   ----------------------------------------
        BYTE   W03
        BYTE                   An2
        BYTE   W24
        BYTE                   Bn2
        BYTE   W24
        BYTE                   An2
        BYTE   W24
        BYTE                   Bn2
        BYTE   W21
// 076   ----------------------------------------
        BYTE   W03
        BYTE                   An2
        BYTE   W24
        BYTE           N03     An2   v063
        BYTE   W03
        BYTE                   An2   v070
        BYTE   W03
        BYTE                   An2   v077
        BYTE   W03
        BYTE                   An2   v084
        BYTE   W03
        BYTE                   An2   v091
        BYTE   W03
        BYTE                   An2   v098
        BYTE   W03
        BYTE                   An2   v105
        BYTE   W03
        BYTE                   An2   v112
        BYTE   W03
        BYTE           EOT     Dn1
        BYTE           N06     Dn1   v127
        BYTE           N96     An2
        BYTE   W06
        BYTE           N06     Dn1   v077
        BYTE   W06
        BYTE                   Dn1   v127
        BYTE   W06
        BYTE                   Dn1   v077
        BYTE   W06
        BYTE           N03     Dn1   v057
        BYTE   W03
        BYTE                   Dn1
        BYTE   W03
        BYTE           N02     Dn1   v027
        BYTE   W02
        BYTE                   Dn1
        BYTE   W02
        BYTE                   Dn1
        BYTE   W02
        BYTE           N12     Dn1   v127
        BYTE   W09
// 077   ----------------------------------------
FE4Title_10_77:
        BYTE   W03
        BYTE           N03     Dn1   v107
        BYTE   W03
        BYTE                   Dn1
        BYTE   W03
        BYTE           N02     Dn1   v077
        BYTE   W02
        BYTE                   Dn1
        BYTE   W02
        BYTE                   Dn1
        BYTE   W02
        BYTE           N12     Dn1   v127
        BYTE   W12
        BYTE           N06
        BYTE   W06
        BYTE                   Dn1
        BYTE   W06
        BYTE                   Dn1   v077
        BYTE   W06
        BYTE                   Dn1   v127
        BYTE   W06
        BYTE                   Dn1
        BYTE   W06
        BYTE                   Dn1   v077
        BYTE   W06
        BYTE                   Dn1   v127
        BYTE   W06
        BYTE                   Dn1   v077
        BYTE   W06
        BYTE           N03     Dn1   v057
        BYTE   W03
        BYTE                   Dn1
        BYTE   W03
        BYTE           N02     Dn1   v027
        BYTE   W02
        BYTE                   Dn1
        BYTE   W02
        BYTE                   Dn1
        BYTE   W02
        BYTE           N12     Dn1   v127
        BYTE   W09
        BYTE   PEND
// 078   ----------------------------------------
FE4Title_10_78:
        BYTE   W03
        BYTE           N03     Dn1   v107
        BYTE   W03
        BYTE                   Dn1
        BYTE   W03
        BYTE           N02     Dn1   v077
        BYTE   W02
        BYTE                   Dn1
        BYTE   W02
        BYTE                   Dn1
        BYTE   W02
        BYTE           N12     Dn1   v127
        BYTE   W12
        BYTE           N06
        BYTE           N03     An2   v063
        BYTE   W03
        BYTE                   An2   v070
        BYTE   W03
        BYTE           N06     Dn1   v127
        BYTE           N03     An2   v077
        BYTE   W03
        BYTE                   An2   v084
        BYTE   W03
        BYTE           N06     Dn1   v077
        BYTE           N03     An2   v091
        BYTE   W03
        BYTE                   An2   v098
        BYTE   W03
        BYTE           N06     Dn1   v127
        BYTE           N03     An2   v105
        BYTE   W03
        BYTE                   An2   v112
        BYTE   W03
        BYTE           N06     Dn1   v127
        BYTE           N96     An2
        BYTE   W06
        BYTE           N06     Dn1   v077
        BYTE   W06
        BYTE                   Dn1   v127
        BYTE   W06
        BYTE                   Dn1   v077
        BYTE   W06
        BYTE           N03     Dn1   v057
        BYTE   W03
        BYTE                   Dn1
        BYTE   W03
        BYTE           N02     Dn1   v027
        BYTE   W02
        BYTE                   Dn1
        BYTE   W02
        BYTE                   Dn1
        BYTE   W02
        BYTE           N12     Dn1   v127
        BYTE   W09
        BYTE   PEND
// 079   ----------------------------------------
        BYTE   PATT
         POIN2  FE4Title_10_77
// 080   ----------------------------------------
        BYTE   PATT
         POIN2  FE4Title_10_78
// 081   ----------------------------------------
        BYTE   W03
        BYTE           N03     Dn1   v107
        BYTE   W03
        BYTE                   Dn1
        BYTE   W03
        BYTE           N02     Dn1   v077
        BYTE   W02
        BYTE                   Dn1
        BYTE   W02
        BYTE                   Dn1
        BYTE   W02
        BYTE           N12     Dn1   v127
        BYTE   W12
        BYTE           N08
        BYTE   W08
        BYTE                   Dn1
        BYTE   W08
        BYTE           N36     Dn1   v127   gtp1
        BYTE   W08
        BYTE           N24     An2
        BYTE           N24     Bn2
        BYTE   W44
        BYTE   W01
// 082   ----------------------------------------
        BYTE   W48
        BYTE   W03
        BYTE   FINE


//********************** End of Song ***********************//

        ALIGN 4
FE4Title:
        BYTE   11                      // Num Tracks
        BYTE   0                       // Unknown
        BYTE   FE4Title_pri // Priority
        BYTE   FE4Title_rev // Reverb

        POIN2   FE4Title_grp

        POIN2   FE4Title_0
        POIN2   FE4Title_1
        POIN2   FE4Title_2
        POIN2   FE4Title_3
        POIN2   FE4Title_4
        POIN2   FE4Title_5
        POIN2   FE4Title_6
        POIN2   FE4Title_7
        POIN2   FE4Title_8
        POIN2   FE4Title_9
        POIN2   FE4Title_10

        
